<svg width="1054" height="59" viewBox="0 0 1054 59" fill="none" xmlns="http://www.w3.org/2000/svg">
<path d="M998.292 44.3848L1006.82 12.561H970.02L973.389 0H1035.79C1037.81 0 1039.34 0.402832 1040.33 1.2085C1041.36 1.97754 1042.38 3.14941 1043.41 4.61426L1050.99 14.978C1051.72 15.9668 1052.31 16.8823 1052.78 17.688C1053.26 18.5303 1053.55 19.4458 1053.66 20.3979C1053.66 20.5811 1053.7 20.8008 1053.7 20.9839C1053.7 21.8262 1053.55 22.7417 1053.26 23.8037L1052.82 25.4517H1040.22L1042.97 15.1611C1043.04 14.8682 1043.08 14.5752 1043.08 14.3188C1043.08 13.916 1042.93 13.5132 1042.68 13.147C1042.38 12.7441 1041.87 12.561 1041.1 12.561H1019.42L1010.89 44.3848H1047.73L1044.36 56.9458H981.958C979.944 56.9458 978.406 56.543 977.417 55.7739C976.392 55.0049 975.367 53.833 974.305 52.3315L966.724 42.0044C965.992 40.979 965.406 40.0635 964.93 39.2212C964.49 38.3789 964.197 37.5 964.124 36.5112C964.087 36.2915 964.087 36.0718 964.087 35.8521C964.087 35.0464 964.234 34.1309 964.527 33.1421L964.966 31.4941H977.564L974.781 41.7847C974.708 42.0776 974.671 42.3706 974.671 42.5903C974.671 43.0298 974.817 43.4326 975.074 43.7988C975.367 44.2017 975.879 44.3848 976.648 44.3848H998.292Z" fill="#DAFF00"/>
<path d="M845.095 15.5273L842.458 25.4517H829.861L830.41 23.4375C830.74 22.1558 831.179 21.0205 831.765 20.105C832.351 19.1895 833.083 18.3105 833.962 17.5049C834.841 16.6992 835.903 15.8203 837.185 14.8315L850.259 4.46777C852.09 3.00293 853.701 1.9043 855.056 1.13525C856.448 0.366211 858.132 0 860.11 0H922.915L919.546 12.561H882.705L874.868 41.7847C874.795 42.0776 874.758 42.334 874.758 42.5903C874.758 43.0298 874.905 43.4326 875.198 43.7988C875.491 44.2017 876.003 44.3848 876.736 44.3848H887.063L883.694 56.9458H882.046C880.728 56.9458 879.629 56.7627 878.787 56.3965C877.908 56.0669 877.139 55.5542 876.479 54.8584C875.82 54.1626 875.125 53.3203 874.429 52.3315L866.848 42.0044C865.75 40.5762 864.944 39.2578 864.468 38.0493C864.248 37.4634 864.138 36.8042 864.138 36.0718C864.138 35.1929 864.285 34.2041 864.614 33.1421L870.107 12.561H848.867C848.025 12.561 847.219 12.854 846.523 13.4033C845.791 13.9893 845.352 14.6851 845.095 15.5273Z" fill="#DAFF00"/>
<path d="M626.081 44.3848L633.917 15.1611C633.991 14.8682 634.027 14.5752 634.027 14.3188C634.027 13.916 633.881 13.5132 633.588 13.147C633.332 12.7441 632.819 12.561 632.05 12.561H621.723L625.092 0H626.74C628.058 0 629.157 0.183105 630.036 0.549316C630.915 0.878906 631.647 1.3916 632.306 2.0874C632.965 2.7832 633.661 3.62549 634.357 4.61426L641.938 14.9414C643.036 16.4062 643.842 17.7246 644.318 18.8965C644.538 19.4824 644.647 20.1782 644.647 20.9473C644.647 21.7896 644.501 22.7417 644.208 23.8037L635.309 56.9458H572.907C571.588 56.9458 570.49 56.7627 569.611 56.3965C568.732 56.0669 568 55.5542 567.34 54.8584C566.681 54.1626 565.985 53.3203 565.253 52.3315L557.672 42.0044C556.574 40.5396 555.805 39.1846 555.365 38.0127C555.146 37.4268 555.036 36.7676 555.036 35.9985C555.036 35.1562 555.182 34.2041 555.475 33.1421L564.337 0H576.935L565.729 41.7847C565.656 42.0776 565.619 42.3706 565.619 42.5903C565.619 43.0298 565.766 43.4326 566.022 43.7988C566.315 44.2017 566.828 44.3848 567.597 44.3848H626.081Z" fill="#DAFF00"/>
<path d="M496.834 15.1611C496.908 14.8315 496.944 14.5752 496.944 14.3188C496.944 13.916 496.834 13.5132 496.578 13.1104C496.322 12.7441 495.772 12.561 495.003 12.561H439.449C438.607 12.561 437.801 12.854 437.105 13.4033C436.41 13.9893 435.934 14.6851 435.677 15.5273L428.646 41.7847C428.573 42.0776 428.536 42.334 428.536 42.5903C428.536 42.9932 428.683 43.396 428.939 43.7988C429.195 44.2017 429.745 44.3848 430.514 44.3848H452.669C454.317 44.3848 455.599 44.6411 456.551 45.1904C457.503 45.7397 458.382 46.5088 459.188 47.5342C459.884 48.3765 460.58 49.292 461.239 50.2075C461.275 50.3174 461.349 50.3906 461.385 50.4639C461.971 51.1597 462.374 51.8555 462.594 52.5513C462.704 52.8809 462.777 53.2837 462.777 53.6865C462.777 54.1626 462.704 54.6753 462.521 55.2246L461.605 58.6304H460.799C460.47 58.6304 460.14 58.4473 459.884 58.1177C459.591 57.3486 458.968 56.9458 458.016 56.9458H435.824C433.81 56.9458 432.308 56.543 431.283 55.7739C430.257 55.0049 429.232 53.833 428.207 52.3315L420.626 42.0044C419.894 41.0156 419.308 40.0635 418.832 39.2212C418.355 38.3789 418.062 37.5 417.989 36.5112C417.953 36.2915 417.953 36.0718 417.953 35.8521C417.953 35.0464 418.099 34.1309 418.392 33.1421L420.992 23.4375C421.505 21.46 422.311 19.8853 423.373 18.7134C424.435 17.5415 425.899 16.2598 427.804 14.8315L440.877 4.46777C442.086 3.479 443.221 2.67334 444.21 2.01416C445.199 1.35498 446.188 0.842285 447.213 0.512695C448.238 0.183105 449.41 0 450.692 0H489.657C491.671 0 493.209 0.402832 494.234 1.17188C495.26 1.97754 496.285 3.11279 497.311 4.61426L504.891 14.978C505.624 15.9668 506.209 16.8457 506.686 17.688C507.125 18.5303 507.418 19.4458 507.528 20.3979C507.564 20.5811 507.564 20.8008 507.564 20.9839C507.564 21.8262 507.418 22.7417 507.125 23.8037L504.525 33.4717C503.976 35.5591 503.133 37.207 501.998 38.4155C500.863 39.624 499.435 40.8691 497.713 42.1509L493.429 45.4834C493.832 45.6665 494.491 46.3623 495.37 47.5342C496.065 48.3765 496.761 49.292 497.42 50.2075C497.457 50.3174 497.53 50.3906 497.567 50.4639C498.153 51.1597 498.556 51.8555 498.775 52.5513C498.885 52.8809 498.958 53.2837 498.958 53.6865C498.958 54.1626 498.885 54.6753 498.702 55.2246L497.787 58.6304H496.981C496.651 58.6304 496.322 58.4473 496.065 58.1177C495.772 57.3486 495.15 56.9458 494.198 56.9458H471.383C469.735 56.9458 468.453 56.6895 467.538 56.1401C466.585 55.5908 465.707 54.8218 464.864 53.7964C464.168 52.9541 463.546 52.0752 462.923 51.1963C462.813 51.123 462.74 51.0498 462.704 50.9399C462.118 50.1709 461.715 49.4385 461.495 48.7427C461.385 48.4131 461.312 48.0469 461.312 47.644C461.312 47.168 461.385 46.6553 461.568 46.106L462.484 42.7002H463.29C463.619 42.7002 463.949 42.8833 464.205 43.2129C464.498 43.9819 465.121 44.3848 466.073 44.3848H486.068C486.91 44.3848 487.716 44.0918 488.412 43.5425C489.107 42.9932 489.547 42.2607 489.803 41.4185L496.834 15.1611Z" fill="#DAFF00"/>
<path d="M196.008 37.5732L194.873 41.7847C194.8 42.0776 194.763 42.3706 194.763 42.5903C194.763 43.0298 194.91 43.4326 195.166 43.7988C195.459 44.2017 195.972 44.3848 196.741 44.3848H227.429L224.06 56.9458H202.051C200.037 56.9458 198.499 56.543 197.51 55.7739C196.484 55.0049 195.459 53.833 194.434 52.3315L186.853 42.0044C185.461 40.2466 184.619 38.7451 184.399 37.5732H172.205C171.362 37.5732 170.593 37.8662 169.861 38.4155C169.165 39.0015 168.726 39.6973 168.469 40.5396L164.075 56.9458H151.44L153.857 47.9736C154.443 46.1426 155.322 44.6045 156.421 43.4326C157.52 42.2607 158.838 41.0889 160.376 39.9536L173.633 29.48C174.841 28.4912 175.977 27.6855 176.965 27.0264C177.954 26.3672 178.943 25.8545 179.968 25.5249C180.994 25.1953 182.166 25.0122 183.447 25.0122H220.032L222.668 15.1611C222.742 14.8315 222.778 14.5752 222.778 14.3188C222.778 13.916 222.632 13.5132 222.375 13.147C222.083 12.7441 221.57 12.561 220.801 12.561H165.283C164.441 12.561 163.635 12.854 162.939 13.4033C162.207 13.9893 161.768 14.6851 161.511 15.5273L150.415 56.9458H137.817L146.973 22.7783C147.559 21.0205 148.401 19.5557 149.536 18.3838C150.635 17.2485 151.953 16.1133 153.418 14.978L166.675 4.50439C167.92 3.51562 169.055 2.67334 170.044 2.01416C171.033 1.35498 172.021 0.842285 173.047 0.512695C174.072 0.183105 175.244 0 176.526 0H215.161C217.432 0 219.08 0.402832 220.105 1.2085C221.13 2.01416 222.119 3.18604 223.108 4.6875L230.688 14.978C231.421 15.9668 232.007 16.8823 232.483 17.688C232.959 18.5303 233.252 19.4458 233.362 20.3979C233.362 20.5811 233.398 20.8008 233.398 20.9839C233.398 21.8262 233.252 22.7417 232.959 23.8037L232.08 27.0996C231.824 28.125 231.384 28.9673 230.798 29.6265C230.249 30.2856 229.48 30.9448 228.528 31.6772L228.198 31.9336C227.1 32.8125 225.964 33.6914 224.829 34.5703C223.511 35.5591 222.266 36.2915 221.094 36.8042C219.922 37.3169 218.53 37.5732 216.919 37.5732H196.008Z" fill="#DAFF00"/>
<path fill-rule="evenodd" clip-rule="evenodd" d="M356.567 26.9038C355.76 28.6457 354.551 29.5166 352.94 29.5166H294.859L298.631 15.5273C298.701 15.2575 298.794 15.0027 298.912 14.7617C299.163 14.2104 299.539 13.7301 300.068 13.3071C300.764 12.7578 301.569 12.4648 302.412 12.4648H360.493L356.721 26.564C356.671 26.6808 356.62 26.7941 356.567 26.9038ZM283.873 23.4375L274.9 56.9458H287.535L291.49 42.0776H341.697C342.979 42.0776 344.151 41.8945 345.176 41.5649C346.202 41.2354 347.19 40.7227 348.179 40.0635C349.168 39.3677 350.303 38.562 351.512 37.5732L354.332 35.376L348.545 56.9458H361.18L376.414 0H313.609C312.327 0 311.155 0.183105 310.13 0.512695C309.104 0.842285 308.116 1.35498 307.127 2.01416C306.138 2.67334 305.003 3.479 303.758 4.46777L290.647 14.8315C288.816 16.2598 287.352 17.5415 286.29 18.7134C285.228 19.8853 284.422 21.46 283.873 23.4375Z" fill="#DAFF00"/>
<path fill-rule="evenodd" clip-rule="evenodd" d="M81.667 26.9038C80.8598 28.6457 79.6507 29.5166 78.0396 29.5166H19.9585L23.7305 15.5273C23.8009 15.2575 23.8938 15.0027 24.0117 14.7617C24.2627 14.2104 24.6387 13.7301 25.1675 13.3071C25.8633 12.7578 26.6689 12.4648 27.5112 12.4648H85.5923L81.8203 26.564C81.7709 26.6808 81.7198 26.7941 81.667 26.9038ZM8.97217 23.4375L0 56.9458H12.6343L16.5894 42.0776H66.7969C68.0786 42.0776 69.2505 41.8945 70.2759 41.5649C71.3013 41.2354 72.29 40.7227 73.2788 40.0635C74.2676 39.3677 75.4028 38.562 76.6113 37.5732L79.4312 35.376L73.645 56.9458H86.2793L101.514 0H38.7085C37.4268 0 36.2549 0.183105 35.2295 0.512695C34.2041 0.842285 33.2153 1.35498 32.2266 2.01416C31.2378 2.67334 30.1025 3.479 28.8574 4.46777L15.7471 14.8315C13.916 16.2598 12.4512 17.5415 11.3892 18.7134C10.3271 19.8853 9.52148 21.46 8.97217 23.4375Z" fill="#DAFF00"/>
<path fill-rule="evenodd" clip-rule="evenodd" d="M767.667 26.9038C766.86 28.6457 765.651 29.5166 764.04 29.5166H705.958L709.73 15.5273C709.801 15.2575 709.894 15.0027 710.012 14.7617C710.263 14.2104 710.639 13.7301 711.167 13.3071C711.863 12.7578 712.669 12.4648 713.511 12.4648H771.592L767.82 26.564C767.771 26.6808 767.72 26.7941 767.667 26.9038ZM694.972 23.4375L686 56.9458H698.634L702.589 42.0776H752.797C754.079 42.0776 755.25 41.8945 756.276 41.5649C757.301 41.2354 758.29 40.7227 759.279 40.0635C760.268 39.3677 761.403 38.562 762.611 37.5732L765.431 35.376L759.645 56.9458H772.279L787.514 0H724.708C723.427 0 722.255 0.183105 721.229 0.512695C720.204 0.842285 719.215 1.35498 718.227 2.01416C717.238 2.67334 716.103 3.479 714.857 4.46777L701.747 14.8315C699.916 16.2598 698.451 17.5415 697.389 18.7134C696.327 19.8853 695.521 21.46 694.972 23.4375Z" fill="#DAFF00"/>
</svg>
