<?xml version="1.0" encoding="UTF-8"?>
<svg xmlns="http://www.w3.org/2000/svg" version="1.1" viewBox="0 0 399 321">
  <defs>
    <style>
      .cls-1 {
        stroke: #daff00;
        stroke-width: 3px;
      }

      .cls-1, .cls-2 {
        fill: #daff00;
      }
    </style>
  </defs>
  <!-- Generator: Adobe Illustrator 28.7.1, SVG Export Plug-In . SVG Version: 1.2.0 Build 142)  -->
  <g>
    <g id="Layer_1">
      <g>
        <path class="cls-1" d="M.5,316.8l-.5,1.9h26.8l.3-1.1,4.5-15.9h6.2l10.1,16.3.4.7h58.2l.5-.6,7.4-9.3h26.8l2,8.7.3,1.2h28.7l-.5-1.9-14.3-51.6-.3-1.1h-34.2l-.5.5-43.2,51.6-1.8,2.1-1.3-2-11.2-17.5c4.2-1.3,7.7-3,10.7-5.1,3.7-2.7,6.2-6.1,7.3-10.2,1.1-4,.6-7.7-1.6-10.7-2.2-3-5.7-5.1-10.4-6.6-4.6-1.5-10.3-2.2-16.8-2.2H15.3l-.3,1.1L.5,316.8ZM41.8,287.8h-6.3l2.7-9.5h7.2c2.6,0,4.8.2,6.5.6h0s0,0,0,0c1.7.4,2.7,1,3.2,1.6h0s0,0,0,0c.4.5.6,1.1.3,2.2-.3,1.1-.9,2-2,2.7-1.1.7-2.6,1.3-4.5,1.7-2,.4-4.3.6-7,.6ZM135.1,282.5l2.9,12.8h-13.1l10.1-12.8ZM177,316.8l-.5,1.9h36c9,0,17-1,24.1-3,7.1-2,13.1-5,17.7-8.9,4.7-3.9,7.9-8.7,9.5-14.3,1.6-5.8,1.1-11-1.7-15.4-2.8-4.3-7.4-7.5-13.6-9.8-6.2-2.2-13.9-3.3-23-3.3h-33.8l-.3,1.1-14.5,51.6ZM233,298.3h0c-2.1,1.9-4.7,3.3-7.9,4.2-3.2.9-6.9,1.3-11.1,1.3h-6.6l7-24.8h7.6c4.5,0,8,.4,10.7,1.1h0c2.6.7,4.1,1.8,4.9,3.2h0c.7,1.4.9,3.6,0,7-1,3.5-2.5,6.1-4.6,8ZM205.4,305.3h1.6l-1.1-1.5-.4,1.5ZM305.9,266l.5-1.9h-26.8l-.3,1.1-14.5,51.6-.5,1.9h26.8l.3-1.1,14.5-51.6ZM394,292.7h0c1.7-6.2,1.2-11.6-1.9-16.2-2.9-4.4-7.6-7.7-13.8-9.9-6.2-2.2-13.4-3.3-21.6-3.3s-15.2,1-22.2,3c-6.9,2-12.9,5-17.8,9-4.9,4-8.2,9-9.9,14.9-1.7,6.2-1.2,11.6,1.9,16.1,3,4.4,7.7,7.6,13.9,9.8,6.2,2.2,13.5,3.2,21.8,3.2s15.1-1,22-3c6.9-2,12.8-4.9,17.7-8.9,4.9-4,8.3-8.9,9.9-14.9ZM367.4,283.7h0c.6,1.6.6,3.8-.2,6.6-.8,3-2.2,5.5-4.2,7.5h0c-1.9,2.1-4.4,3.6-7.4,4.7h0c-3,1.1-6.5,1.7-10.5,1.7s-6.2-.5-8.2-1.4c-1.9-.9-3.1-2.1-3.7-3.6-.6-1.6-.6-3.7.3-6.5h0s0,0,0,0c.8-3,2.2-5.5,4.1-7.5,2-2.1,4.4-3.7,7.5-4.8,3-1.1,6.6-1.7,10.6-1.7s6.3.5,8.2,1.4h0c1.9.9,3,2.1,3.5,3.7Z"/>
        <path class="cls-2" d="M310.9,98.9c4.7,4.5,8.6,8.6,12.3,12.6-.8,1-1.7,1.9-2.6,3,.6.6,1.1,1.3,1.7,1.8,1.5,1.4,1.5,2.8,0,4.3-7.4,7.4-14.9,14.8-22.3,22.3-1.5,1.5-2.8,1.5-4.3,0-7.2-7.2-14.5-14.2-21.5-21.6-3.4-3.6-2.5-4.4-2.5-12.6s4.9-10.6,9.1-14.7c7.9-7.6,15.6-15.5,23.3-23.3,2.5-2.6,5.3-3.7,8.8-3.6,3,.1,6,.3,9,0,1.8-.2,4-.8,5.3-2,2.8-2.5,5.2-5.5,8.1-8.6-6.1-6-12.1-12-18.2-17.8-.9-.8-2.2-1.3-3.5-1.5-2-.3-4-.4-6-.4-30.7,0-61.3,0-92,0-1.2,0-2.4,0-3.5,0-5.3,0-8.3,1.1-11.7,4.5-12.9,12.9-26.1,25.6-39.2,38.3-3,2.9-6.2,5.5-9.4,8.3,3,5.7,7.8,9.3,12.1,13.3,4,3.8,8.1,7.4,11.8,11.4,3.5,3.7,6.6,7.7,9.8,11.7,2.9,3.5,5.8,7.1,8.8,10.6.6.8,1.3,1.6,2.1,2.1,6,4.2,9.7,9.7,12.1,16.7,1.7,5.1,3.6,10.1,4.9,15.4.3,1.1.6,2.2.6,3.4,0,2.1.5,4.2-2.6,5-1.6.4-2.7,2.5-5.1.7,1.4,3.5,0,5.7-2.4,7.9,2.6,5.8,5.2,11.6,7.7,17.4.9,2.2,1.5,4.6,2,7,1.2,5.1,2.3,10.1,3.4,15.2.2.8,0,1.7,0,2.5.1,3-1.2,6,0,9.1.2.4-.5,1.1-.7,1.6-.5,0-1,0-1.1,0-3.1-5.5-7.6-10.1-9.6-16.3-1.8-5.5-3.3-11.3-6.9-16.1-.8-1.1-1.4-2.6-1.6-4.1-.6-4.5-3-7.4-7.6-9.1,0,1,.1,1.8.1,2.6-.3.1-.6.3-.8.4-4-6.6-8-13.3-12.2-19.9-1.6-2.6-3.6-5-5.5-7.5-.7-.9-1.4-1.8-2.1-2.7-2-2.8-3.9-5.6-6-8.3-2-2.6-2-3.4.2-5.6,1.9,1.8,3.9,3.6,5.9,5.4-1-5.3-31-37.4-41.4-45.4-1.6,1.6-3.2,3.2-4.8,4.8-18,17.5-36.1,34.9-54,52.4-16.3,15.9-32.3,32.1-48.5,48-1.7,1.7-4.1,2.6-6.1,3.9-2.1,1.5-4,.8-6.1-.7,1.9-1.8,3.8-3.6,6-5.7-1.1-.6-2-1.2-3.2-1.9,1.3-1.4,2.4-2.6,3.6-3.7,13.9-13.9,27.7-27.9,41.7-41.7,17.6-17.4,35.4-34.8,53.1-52.1,3.5-3.4,7.3-6.5,11.6-10.3-3.2-2.6-5.9-4.7-8.4-7-5-4.6-10.1-9.1-14.9-14-2.2-2.2-4.3-3.3-7.5-3.1-1.3.1-3-.5-4-1.3-6.5-5.3-12.9-10.7-19.3-16.2-1.6-1.3-2.9-3-4.5-4.4-4.1-3.7-8.3-7.4-12.8-11.5-1,1.7-2,2.8-2.5,4.1-.9,2.7-2.4,3-4.4,1.5-2.2-1.7-4.5-3.4-6.2-5.5-1.6-2-2.4-4.6-3.4-7-.5-1-.8-2.2-.9-3.3-.1-2.4,0-4.8,0-7.2,0-2-.1-3.8,1.7-5.5.9-.8,1.1-2.6,1.3-4,.5-3.3,1-6.6,4.7-7.9.5-.2.9-.7,1.3-.6,6.4,1.4,10.9-2.8,15.9-5.5.6-.3,1.4-.8,1.8-.6,3.2,1.4,6.4-.5,9.6,0,2,.3,4.1,1.3,5.7,2.5,5.9,4.4,9.7,10.7,14.6,16.1,3.4,3.8,6.9,7.4,9.1,12.2,1.1,2.3,4,3.8,6.3,5.5,6.1,4.8,11.9,9.9,16.1,16.6.2.3.3.7.5.8,7.8,4.7,13.2,11.9,19.2,18.4,3.4,3.6,3.5,3.5,7.5.5,1.4-1.1,2.9-2.3,4.1-3.6,11-10.9,21.9-22,32.9-32.8,13.4-13.2,26.9-26.2,40.3-39.4C227.1.8,229.5,0,232.5,0c34.8.4,69.6.7,104.4,1,3.4,0,6,1,8.4,3.4,12.9,13,25.9,25.9,38.8,39,1.2,1.2,2.4,3,2.4,4.6,0,10.9-.3,18.9-.3,29.8s-1.5,3.3-2.7,4.5c-4.1,4.3-8.4,8.6-12.7,12.7-2.8,2.8-6.2,4.1-10.2,4-14-.1-28,0-42,0-1.6,0-5.3-.1-7.7-.1ZM150.8,86.8c6.8-6.3,13.6-12.5,20.1-18.8,9.4-9.2,18.6-18.6,27.9-27.9,3.4-3.4,7-5.3,12.2-5.2,30.5.3,65.6.5,96.1,0,9.6-.2,12.1,2.1,18.5,9.3s6,6.6,9.2,9.8c1.3,1.3,2.8,1.6,3.8.1.5-.8.3-2.5-.2-3.4-.7-1.3-2.1-2.1-3.1-3.2-5.1-5.5-9.7-10.4-15-15.3-3.3-3.1-6.4-4.2-10.4-4.1-16,.1-32,0-48,0-16.7,0-33.3,0-50,0-1.8,0-4.1.4-5.4,1.5-5,4.3-9.9,8.9-14.6,13.5-9.4,9.2-18.6,18.6-28,27.9-4,3.9-8.3,7.5-12.3,11.4-1.1,1.1-3.6,2.1-.8,4.4ZM303.7,91c3.2,4.5,6,7.1,10.9,7,14.5-.1,29-.2,43.5,0,4.8,0,8.8-1.7,12.2-4.6,4.5-3.9,8.6-8.4,12.8-12.7,1.8-1.8,2.9-3.9,1.7-7.1-1.2,1-2.3,1.7-3.2,2.6-3.6,3.5-7.1,7.1-10.6,10.6-2.8,2.7-6,4.2-10.1,4.2-17-.1-34,0-51,0-1.8,0-3.5,0-6.2,0ZM273.8,112.9c-1.3,3.9.9,6.6,2.9,8.7,6.1,6.6,12.6,12.8,18.9,19.1,1.7,1.7,3,1.6,4.6,0,6.6-6.6,13.2-13.1,19.7-19.8,2.3-2.3,2.8-2.9-.3-5.3-6.6,6.6-14.5,14.2-21.8,21.5-8.3-8.3-16-16-24-24.1ZM11.7,220.1c1.9-.3,2.9-.1,3.4-.6,1.9-1.6,3.6-3.3,5.4-5,9.4-9.1,18.8-18.3,28.2-27.4,13.8-13.4,27.5-26.9,41.3-40.3.9-.9,1.6-2,2.5-3-6.1.8-8.4,6.2-12.7,8.9-.3-.5-.6-.9-1.1-1.6-1,1.1-2.6,2.1-2.7,3.3-.6,3.7-3.2,5.7-5.6,8-3.2,3.1-6.6,6-9.8,9.1-12.7,12.6-25.4,25.2-38.1,37.7-3.4,3.4-6.7,6.7-10.8,10.8ZM124.9,109.3c-10,9.7-20.1,19.3-30.1,29-.9.9-1.4,2.2-2.2,3.3.3.2.5.5.8.7,1.6-1.2,3.4-2.3,4.9-3.7,6.5-6.4,12.9-13,19.5-19.4,2.3-2.3,4.9-4.3,7.4-6.5,1.5-1.3,1.4-2.4-.3-3.4Z"/>
      </g>
    </g>
  </g>
</svg>