<svg width="767" height="365" viewBox="0 0 767 365" fill="none" xmlns="http://www.w3.org/2000/svg">
<mask id="path-1-outside-1_26_15" maskUnits="userSpaceOnUse" x="47" y="140" width="422" height="84" fill="black">
<rect fill="white" x="47" y="140" width="422" height="84"/>
<path d="M54.7916 217L56.5643 206.5L96.928 162.455H63.928L66.5189 147.182L123.519 147.182L121.746 157.682L81.3825 201.727H114.383L111.792 217H54.7916ZM236.241 183.318C234.968 190.909 232.446 197.273 228.673 202.409C224.9 207.545 220.321 211.42 214.934 214.034C209.548 216.648 203.787 217.955 197.65 217.955C191.105 217.955 185.423 216.534 180.605 213.693C175.787 210.852 172.275 206.693 170.071 201.216C167.866 195.739 167.423 189.045 168.741 181.136C169.968 173.545 172.468 167.159 176.241 161.977C180.014 156.795 184.616 152.875 190.048 150.216C195.48 147.557 201.287 146.227 207.468 146.227C213.968 146.227 219.616 147.659 224.412 150.523C229.23 153.386 232.73 157.58 234.912 163.102C237.116 168.625 237.559 175.364 236.241 183.318ZM217.15 181.136C217.787 177.136 217.832 173.773 217.287 171.045C216.741 168.295 215.593 166.227 213.843 164.841C212.093 163.432 209.741 162.727 206.787 162.727C203.423 162.727 200.446 163.545 197.855 165.182C195.264 166.818 193.116 169.17 191.412 172.239C189.707 175.307 188.514 179 187.832 183.318C187.105 187.364 187.037 190.727 187.628 193.409C188.241 196.091 189.446 198.102 191.241 199.443C193.059 200.784 195.423 201.455 198.332 201.455C201.65 201.455 204.582 200.659 207.128 199.068C209.696 197.477 211.821 195.17 213.503 192.148C215.207 189.125 216.423 185.455 217.15 181.136ZM356.54 147.182L344.949 217H329.131L310.04 180.318H309.631L303.495 217H284.54L296.131 147.182H312.222L331.04 183.727H331.586L337.586 147.182H356.54ZM399.035 217L410.626 147.182L460.944 147.182L458.353 162.455H426.99L425.081 174.455H453.853L451.262 189.727H422.49L420.581 201.727H451.808L449.217 217H399.035Z"/>
</mask>
<path d="M54.7916 217L48.8753 216.001L47.6937 223H54.7916V217ZM56.5643 206.5L52.1408 202.446L50.9432 203.753L50.6481 205.501L56.5643 206.5ZM96.928 162.455L101.351 166.508L110.565 156.455L96.928 156.455V162.455ZM63.928 162.455L58.0125 161.451L56.8244 168.455H63.928V162.455ZM66.5189 147.182V141.182H61.451L60.6034 146.178L66.5189 147.182ZM123.519 147.182L129.435 148.181L130.617 141.182H123.519V147.182ZM121.746 157.682L126.17 161.736L127.367 160.429L127.662 158.681L121.746 157.682ZM81.3825 201.727L76.959 197.674L67.7457 207.727H81.3825V201.727ZM114.383 201.727L120.298 202.731L121.486 195.727H114.383V201.727ZM111.792 217V223H116.859L117.707 218.004L111.792 217ZM60.7079 217.999L62.4806 207.499L50.6481 205.501L48.8753 216.001L60.7079 217.999ZM60.9878 210.554L101.351 166.508L92.5045 158.401L52.1408 202.446L60.9878 210.554ZM96.928 156.455H63.928V168.455H96.928L96.928 156.455ZM69.8434 163.458L72.4344 148.185L60.6034 146.178L58.0125 161.451L69.8434 163.458ZM66.5189 153.182L123.519 153.182V141.182L66.5189 141.182V153.182ZM117.603 146.183L115.83 156.683L127.662 158.681L129.435 148.181L117.603 146.183ZM117.323 153.628L76.959 197.674L85.806 205.781L126.17 161.736L117.323 153.628ZM81.3825 207.727H114.383V195.727H81.3825V207.727ZM108.467 200.724L105.876 215.996L117.707 218.004L120.298 202.731L108.467 200.724ZM111.792 211H54.7916V223H111.792V211ZM236.241 183.318L242.159 184.31L242.16 184.299L236.241 183.318ZM228.673 202.409L223.837 198.857L223.837 198.857L228.673 202.409ZM214.934 214.034L217.554 219.432L217.554 219.432L214.934 214.034ZM180.605 213.693L183.652 208.525L180.605 213.693ZM170.071 201.216L175.637 198.976L175.637 198.976L170.071 201.216ZM168.741 181.136L174.66 182.123L174.662 182.108L174.664 182.094L168.741 181.136ZM176.241 161.977L171.391 158.446L171.391 158.446L176.241 161.977ZM190.048 150.216L187.41 144.827L187.41 144.827L190.048 150.216ZM224.412 150.523L221.335 155.674L221.346 155.681L224.412 150.523ZM234.912 163.102L229.331 165.307L229.335 165.317L229.339 165.327L234.912 163.102ZM217.15 181.136L223.067 182.133L223.071 182.106L223.076 182.079L217.15 181.136ZM217.287 171.045L211.401 172.213L211.403 172.222L217.287 171.045ZM213.843 164.841L210.08 169.514L210.099 169.529L210.118 169.544L213.843 164.841ZM197.855 165.182L194.651 160.109L194.651 160.109L197.855 165.182ZM187.832 183.318L193.737 184.38L193.749 184.317L193.759 184.254L187.832 183.318ZM187.628 193.409L181.768 194.7L181.773 194.724L181.779 194.747L187.628 193.409ZM191.241 199.443L187.651 204.25L187.665 204.261L187.68 204.272L191.241 199.443ZM207.128 199.068L203.968 193.968L203.958 193.974L203.948 193.98L207.128 199.068ZM213.503 192.148L208.276 189.201L208.268 189.216L208.259 189.231L213.503 192.148ZM230.324 182.326C229.174 189.181 226.95 194.619 223.837 198.857L233.509 205.961C237.941 199.926 240.762 192.637 242.159 184.31L230.324 182.326ZM223.837 198.857C220.604 203.259 216.767 206.476 212.315 208.636L217.554 219.432C223.874 216.365 229.197 211.832 233.509 205.961L223.837 198.857ZM212.315 208.636C207.766 210.843 202.903 211.955 197.65 211.955L197.65 223.955C204.671 223.955 211.33 222.452 217.554 219.432L212.315 208.636ZM197.65 211.955C191.992 211.955 187.4 210.735 183.652 208.525L177.557 218.862C183.446 222.334 190.217 223.955 197.65 223.955L197.65 211.955ZM183.652 208.525C180.039 206.395 177.377 203.299 175.637 198.976L164.505 203.456C167.174 210.087 171.534 215.31 177.557 218.862L183.652 208.525ZM175.637 198.976C173.966 194.825 173.46 189.32 174.66 182.123L162.823 180.15C161.386 188.771 161.766 196.653 164.505 203.456L175.637 198.976ZM174.664 182.094C175.771 175.249 177.974 169.791 181.092 165.509L171.391 158.446C166.963 164.527 164.166 171.842 162.818 180.179L174.664 182.094ZM181.092 165.509C184.325 161.068 188.185 157.808 192.686 155.605L187.41 144.827C181.048 147.942 175.703 152.523 171.391 158.446L181.092 165.509ZM192.686 155.605C197.278 153.357 202.18 152.227 207.468 152.227V140.227C200.393 140.227 193.682 141.757 187.41 144.827L192.686 155.605ZM207.468 152.227C213.065 152.227 217.613 153.451 221.335 155.674L227.488 145.371C221.619 141.867 214.872 140.227 207.468 140.227V152.227ZM221.346 155.681C224.952 157.823 227.607 160.941 229.331 165.307L240.492 160.898C237.853 154.218 233.508 148.949 227.477 145.365L221.346 155.681ZM229.339 165.327C231.018 169.532 231.523 175.092 230.322 182.337L242.16 184.299C243.596 175.635 243.214 167.718 240.484 160.878L229.339 165.327ZM223.076 182.079C223.777 177.668 223.903 173.535 223.17 169.869L211.403 172.222C211.761 174.01 211.796 176.605 211.225 180.194L223.076 182.079ZM223.172 169.878C222.422 166.099 220.699 162.617 217.569 160.138L210.118 169.544C210.488 169.837 211.06 170.492 211.401 172.213L223.172 169.878ZM217.606 160.168C214.495 157.662 210.676 156.727 206.787 156.727V168.727C208.806 168.727 209.692 169.201 210.08 169.514L217.606 160.168ZM206.787 156.727C202.404 156.727 198.293 157.808 194.651 160.109L201.059 170.255C202.598 169.283 204.442 168.727 206.787 168.727V156.727ZM194.651 160.109C191.093 162.356 188.288 165.506 186.167 169.325L196.657 175.152C197.944 172.835 199.435 171.28 201.059 170.255L194.651 160.109ZM186.167 169.325C184.049 173.137 182.671 177.534 181.905 182.382L193.759 184.254C194.357 180.466 195.365 177.476 196.657 175.152L186.167 169.325ZM181.927 182.257C181.122 186.731 180.944 190.96 181.768 194.7L193.487 192.118C193.129 190.495 193.087 187.997 193.737 184.38L181.927 182.257ZM181.779 194.747C182.635 198.489 184.472 201.876 187.651 204.25L194.831 194.636C194.42 194.328 193.847 193.693 193.476 192.071L181.779 194.747ZM187.68 204.272C190.792 206.567 194.511 207.455 198.332 207.455V195.455C196.335 195.455 195.327 195.001 194.802 194.614L187.68 204.272ZM198.332 207.455C202.652 207.455 206.71 206.405 210.307 204.156L203.948 193.98C202.454 194.913 200.648 195.455 198.332 195.455V207.455ZM210.287 204.169C213.844 201.966 216.64 198.85 218.746 195.065L208.259 189.231C207.002 191.491 205.548 192.989 203.968 193.968L210.287 204.169ZM218.729 195.095C220.851 191.332 222.253 186.965 223.067 182.133L211.234 180.14C210.593 183.944 209.563 186.918 208.276 189.201L218.729 195.095ZM356.54 147.182L362.459 148.164L363.618 141.182H356.54V147.182ZM344.949 217V223H350.035L350.868 217.983L344.949 217ZM329.131 217L323.809 219.77L325.49 223H329.131V217ZM310.04 180.318L315.362 177.548L313.681 174.318H310.04V180.318ZM309.631 180.318V174.318H304.551L303.713 179.328L309.631 180.318ZM303.495 217V223H308.574L309.412 217.99L303.495 217ZM284.54 217L278.621 216.017L277.462 223H284.54V217ZM296.131 147.182V141.182H291.045L290.212 146.199L296.131 147.182ZM312.222 147.182L317.556 144.435L315.881 141.182H312.222V147.182ZM331.04 183.727L325.706 186.474L327.381 189.727H331.04V183.727ZM331.586 183.727V189.727H336.681L337.506 184.699L331.586 183.727ZM337.586 147.182V141.182H332.49L331.665 146.21L337.586 147.182ZM350.621 146.199L339.03 216.017L350.868 217.983L362.459 148.164L350.621 146.199ZM344.949 211H329.131V223H344.949V211ZM334.453 214.23L315.362 177.548L304.718 183.088L323.809 219.77L334.453 214.23ZM310.04 174.318H309.631V186.318H310.04V174.318ZM303.713 179.328L297.577 216.01L309.412 217.99L315.549 181.308L303.713 179.328ZM303.495 211H284.54V223H303.495V211ZM290.459 217.983L302.05 148.164L290.212 146.199L278.621 216.017L290.459 217.983ZM296.131 153.182H312.222V141.182H296.131V153.182ZM306.888 149.929L325.706 186.474L336.374 180.98L317.556 144.435L306.888 149.929ZM331.04 189.727H331.586V177.727H331.04V189.727ZM337.506 184.699L343.506 148.154L331.665 146.21L325.665 182.755L337.506 184.699ZM337.586 153.182H356.54V141.182H337.586V153.182ZM399.035 217L393.116 216.017L391.957 223H399.035V217ZM410.626 147.182V141.182H405.54L404.707 146.199L410.626 147.182ZM460.944 147.182L466.86 148.185L468.048 141.182H460.944V147.182ZM458.353 162.455V168.455H463.421L464.269 163.458L458.353 162.455ZM426.99 162.455V156.455H421.869L421.064 161.512L426.99 162.455ZM425.081 174.455L419.155 173.512L418.051 180.455H425.081V174.455ZM453.853 174.455L459.769 175.458L460.957 168.455H453.853V174.455ZM451.262 189.727V195.727H456.33L457.178 190.731L451.262 189.727ZM422.49 189.727V183.727H417.369L416.564 188.785L422.49 189.727ZM420.581 201.727L414.655 200.785L413.551 207.727H420.581V201.727ZM451.808 201.727L457.723 202.731L458.911 195.727H451.808V201.727ZM449.217 217V223H454.285L455.132 218.004L449.217 217ZM404.954 217.983L416.545 148.164L404.707 146.199L393.116 216.017L404.954 217.983ZM410.626 153.182L460.944 153.182V141.182L410.626 141.182V153.182ZM455.029 146.178L452.438 161.451L464.269 163.458L466.86 148.185L455.029 146.178ZM458.353 156.455H426.99V168.455H458.353V156.455ZM421.064 161.512L419.155 173.512L431.006 175.397L432.915 163.397L421.064 161.512ZM425.081 180.455H453.853V168.455H425.081V180.455ZM447.938 173.451L445.347 188.724L457.178 190.731L459.769 175.458L447.938 173.451ZM451.262 183.727H422.49V195.727H451.262V183.727ZM416.564 188.785L414.655 200.785L426.506 202.67L428.415 190.67L416.564 188.785ZM420.581 207.727H451.808V195.727H420.581V207.727ZM445.892 200.724L443.301 215.996L455.132 218.004L457.723 202.731L445.892 200.724ZM449.217 211H399.035V223H449.217V211Z" fill="#DAFF00" mask="url(#path-1-outside-1_26_15)"/>
<path d="M600.261 90.1334C605.274 82.4152 617.234 85.62 617.716 94.8102L619.759 133.809C620.36 145.274 628.275 155.048 639.364 158.019L677.086 168.127C685.975 170.508 686.623 182.874 678.032 186.172L641.573 200.167C630.855 204.281 624.006 214.829 624.606 226.294L626.65 265.292C627.132 274.483 615.572 278.92 609.78 271.768L585.204 241.419C577.979 232.497 565.831 229.242 555.113 233.356L518.654 247.351C510.063 250.649 502.27 241.026 507.283 233.308L528.552 200.556C534.805 190.928 534.147 178.368 526.922 169.446L502.345 139.097C496.554 131.945 503.298 121.56 512.187 123.942L549.908 134.049C560.998 137.021 572.739 132.514 578.992 122.885L600.261 90.1334Z" fill="#FF7B00" stroke="#DAFF00" stroke-width="17" stroke-linecap="round" stroke-linejoin="round"/>
<path d="M600.262 91.3956C605.274 83.6774 617.234 86.8822 617.716 96.0724L619.76 135.071C620.361 146.536 628.276 156.31 639.365 159.281L677.087 169.389C685.976 171.771 686.624 184.136 678.032 187.434L641.574 201.429C630.856 205.543 624.006 216.091 624.607 227.556L626.651 266.555C627.132 275.745 615.572 280.182 609.781 273.03L585.204 242.681C577.98 233.759 565.831 230.504 555.113 234.618L518.655 248.613C510.063 251.911 502.271 242.288 507.283 234.57L528.552 201.818C534.805 192.19 534.147 179.63 526.922 170.708L502.346 140.359C496.554 133.207 503.298 122.822 512.187 125.204L549.909 135.312C560.998 138.283 572.74 133.776 578.992 124.148L600.262 91.3956Z" fill="#0500FF" stroke="#DAFF00" stroke-width="17" stroke-linecap="round" stroke-linejoin="round"/>
<mask id="path-5-outside-2_26_15" maskUnits="userSpaceOnUse" x="558" y="149" width="56" height="64" fill="black">
<rect fill="white" x="558" y="149" width="56" height="64"/>
<path d="M582.796 206.676C579.834 206.676 577.105 206.201 574.61 205.251C572.114 204.302 570.014 202.812 568.307 200.784C566.601 198.74 565.434 196.099 564.806 192.864C564.178 189.628 564.25 185.732 565.023 181.176C565.683 177.232 566.77 173.706 568.283 170.599C569.796 167.476 571.656 164.82 573.861 162.631C576.067 160.425 578.554 158.751 581.323 157.608C584.092 156.449 587.062 155.869 590.233 155.869C593.904 155.869 597.035 156.562 599.627 157.946C602.235 159.314 604.199 161.166 605.519 163.5C606.839 165.818 607.41 168.394 607.233 171.227L594.194 171.227C594.194 169.795 593.719 168.78 592.769 168.185C591.819 167.573 590.684 167.267 589.364 167.267C586.45 167.267 584.06 168.555 582.192 171.131C580.325 173.69 579.013 176.974 578.256 180.983L578.642 180.307C579.528 178.794 580.671 177.522 582.071 176.491C583.488 175.461 585.05 174.68 586.756 174.149C588.479 173.618 590.249 173.352 592.069 173.352C595.143 173.352 597.727 174.061 599.82 175.477C601.913 176.894 603.402 178.834 604.287 181.297C605.173 183.76 605.35 186.553 604.819 189.676C604.255 193.121 602.951 196.116 600.907 198.659C598.862 201.203 596.278 203.175 593.155 204.575C590.032 205.976 586.579 206.676 582.796 206.676ZM583.279 196.534C584.712 196.534 586.048 196.204 587.287 195.544C588.543 194.868 589.589 193.95 590.426 192.791C591.264 191.616 591.779 190.288 591.972 188.807C592.165 187.551 592.069 186.448 591.682 185.499C591.312 184.533 590.7 183.784 589.847 183.253C588.994 182.705 587.931 182.432 586.659 182.432C585.613 182.432 584.607 182.625 583.641 183.011C582.675 183.398 581.798 183.937 581.009 184.629C580.22 185.321 579.56 186.143 579.029 187.092C578.498 188.026 578.143 189.048 577.966 190.159C577.789 191.463 577.894 192.59 578.28 193.54C578.667 194.49 579.286 195.23 580.14 195.761C581.009 196.277 582.055 196.534 583.279 196.534Z"/>
</mask>
<path d="M574.61 205.251L576.744 199.644L576.744 199.644L574.61 205.251ZM568.307 200.784L563.701 204.629L563.708 204.638L563.716 204.647L568.307 200.784ZM564.806 192.864L570.696 191.721L570.696 191.721L564.806 192.864ZM565.023 181.176L570.939 182.179L570.941 182.166L565.023 181.176ZM568.283 170.599L573.677 173.227L573.683 173.216L568.283 170.599ZM573.861 162.631L578.088 166.889L578.096 166.881L578.104 166.873L573.861 162.631ZM581.323 157.608L583.612 163.154L583.626 163.148L583.64 163.143L581.323 157.608ZM599.627 157.946L596.8 163.238L596.819 163.249L596.839 163.259L599.627 157.946ZM605.519 163.5L600.296 166.454L600.301 166.461L600.305 166.469L605.519 163.5ZM607.233 171.227V177.227L612.87 177.227L613.222 171.602L607.233 171.227ZM594.194 171.227H588.194V177.227H594.194V171.227ZM592.769 168.185L589.52 173.229L589.55 173.249L589.581 173.268L592.769 168.185ZM582.192 171.131L587.039 174.667L587.045 174.66L587.05 174.652L582.192 171.131ZM578.256 180.983L572.36 179.87L583.465 183.96L578.256 180.983ZM578.642 180.307L573.464 177.277L573.448 177.303L573.433 177.33L578.642 180.307ZM582.071 176.491L578.542 171.639L578.529 171.649L578.516 171.658L582.071 176.491ZM586.756 174.149L584.988 168.416L584.98 168.418L584.973 168.42L586.756 174.149ZM599.82 175.477L596.457 180.446L596.457 180.446L599.82 175.477ZM604.287 181.297L598.641 183.327L598.641 183.327L604.287 181.297ZM604.819 189.676L598.904 188.67L598.9 188.689L598.897 188.708L604.819 189.676ZM593.155 204.575L595.61 210.05L595.61 210.05L593.155 204.575ZM587.287 195.544L590.107 200.84L590.12 200.833L590.132 200.827L587.287 195.544ZM590.426 192.791L595.291 196.304L595.302 196.288L595.313 196.272L590.426 192.791ZM591.972 188.807L586.042 187.894L586.031 187.963L586.022 188.031L591.972 188.807ZM591.682 185.499L586.08 187.646L586.101 187.703L586.124 187.759L591.682 185.499ZM589.847 183.253L586.607 188.303L586.641 188.325L586.676 188.346L589.847 183.253ZM581.009 184.629L584.966 189.139L584.966 189.139L581.009 184.629ZM579.029 187.092L584.244 190.059L584.255 190.04L584.265 190.021L579.029 187.092ZM577.966 190.159L572.041 189.214L572.03 189.283L572.021 189.352L577.966 190.159ZM578.28 193.54L583.838 191.279L583.838 191.279L578.28 193.54ZM580.14 195.761L576.968 200.855L577.024 200.89L577.081 200.923L580.14 195.761ZM582.796 200.676C580.484 200.676 578.487 200.307 576.744 199.644L572.475 210.859C575.723 212.095 579.184 212.676 582.796 212.676V200.676ZM576.744 199.644C575.196 199.055 573.943 198.163 572.899 196.922L563.716 204.647C566.084 207.462 569.033 209.549 572.475 210.859L576.744 199.644ZM572.914 196.939C571.993 195.837 571.176 194.195 570.696 191.721L558.916 194.007C559.691 198.003 561.208 201.642 563.701 204.629L572.914 196.939ZM570.696 191.721C570.249 189.415 570.242 186.288 570.939 182.179L559.108 180.173C558.259 185.176 558.107 189.84 558.916 194.007L570.696 191.721ZM570.941 182.166C571.52 178.703 572.452 175.742 573.677 173.227L562.889 167.972C561.087 171.671 559.846 175.761 559.105 180.186L570.941 182.166ZM573.683 173.216C574.935 170.632 576.416 168.549 578.088 166.889L569.634 158.373C566.895 161.091 564.658 164.321 562.883 167.983L573.683 173.216ZM578.104 166.873C579.774 165.203 581.604 163.983 583.612 163.154L579.033 152.062C575.504 153.519 572.359 155.647 569.619 158.388L578.104 166.873ZM583.64 163.143C585.634 162.308 587.812 161.869 590.233 161.869V149.869C586.312 149.869 582.55 150.59 579.006 152.073L583.64 163.143ZM590.233 161.869C593.159 161.869 595.268 162.42 596.8 163.238L602.454 152.654C598.802 150.703 594.649 149.869 590.233 149.869V161.869ZM596.839 163.259C598.53 164.146 599.599 165.221 600.296 166.454L610.742 160.546C608.798 157.11 605.94 154.483 602.414 152.633L596.839 163.259ZM600.305 166.469C601.009 167.706 601.354 169.107 601.245 170.853L613.222 171.602C613.467 167.681 612.669 163.931 610.733 160.531L600.305 166.469ZM607.233 165.227L594.194 165.227V177.227H607.233V165.227ZM600.194 171.227C600.194 168.382 599.146 165.102 595.957 163.102L589.581 173.268C589.08 172.954 588.656 172.475 588.404 171.936C588.179 171.457 588.194 171.153 588.194 171.227L600.194 171.227ZM596.018 163.14C593.945 161.806 591.638 161.267 589.364 161.267V173.267C589.56 173.267 589.644 173.29 589.644 173.29C589.645 173.29 589.63 173.286 589.605 173.275C589.579 173.263 589.55 173.248 589.52 173.229L596.018 163.14ZM589.364 161.267C584.331 161.267 580.21 163.643 577.334 167.609L587.05 174.652C587.909 173.467 588.57 173.267 589.364 173.267V161.267ZM577.345 167.594C574.824 171.05 573.236 175.229 572.36 179.87L584.152 182.096C584.789 178.72 585.825 176.331 587.039 174.667L577.345 167.594ZM583.465 183.96L583.852 183.284L573.433 177.33L573.047 178.006L583.465 183.96ZM583.821 183.337C584.297 182.523 584.89 181.867 585.627 181.325L578.516 171.658C576.452 173.177 574.758 175.064 573.464 177.277L583.821 183.337ZM585.6 181.344C586.476 180.707 587.446 180.218 588.54 179.878L584.973 168.42C582.653 169.142 580.5 170.215 578.542 171.639L585.6 181.344ZM588.524 179.883C589.669 179.53 590.843 179.352 592.069 179.352V167.352C589.656 167.352 587.288 167.706 584.988 168.416L588.524 179.883ZM592.069 179.352C594.207 179.352 595.554 179.835 596.457 180.446L603.183 170.509C599.9 168.286 596.079 167.352 592.069 167.352V179.352ZM596.457 180.446C597.457 181.123 598.169 182.015 598.641 183.327L609.934 179.267C608.634 175.653 606.369 172.665 603.183 170.509L596.457 180.446ZM598.641 183.327C599.11 184.632 599.298 186.352 598.904 188.67L610.734 190.682C611.402 186.754 611.235 182.887 609.934 179.267L598.641 183.327ZM598.897 188.708C598.489 191.204 597.581 193.22 596.23 194.9L605.583 202.418C608.322 199.011 610.021 195.038 610.74 190.645L598.897 188.708ZM596.23 194.9C594.809 196.668 593.001 198.069 590.7 199.101L595.61 210.05C599.556 208.281 602.915 205.737 605.583 202.418L596.23 194.9ZM590.7 199.101C588.427 200.12 585.822 200.676 582.796 200.676V212.676C587.336 212.676 591.637 211.832 595.61 210.05L590.7 199.101ZM583.279 202.534C585.674 202.534 587.981 201.972 590.107 200.84L584.467 190.248C584.114 190.436 583.749 190.534 583.279 190.534V202.534ZM590.132 200.827C592.188 199.72 593.924 198.196 595.291 196.304L585.562 189.278C585.255 189.704 584.898 190.016 584.443 190.261L590.132 200.827ZM595.313 196.272C596.742 194.267 597.606 192.003 597.922 189.583L586.022 188.031C585.952 188.572 585.786 188.965 585.54 189.31L595.313 196.272ZM597.902 189.719C598.221 187.646 598.122 185.407 597.24 183.238L586.124 187.759C586.101 187.701 586.086 187.651 586.077 187.614C586.068 187.577 586.067 187.558 586.067 187.562C586.068 187.57 586.076 187.673 586.042 187.894L597.902 189.719ZM597.285 183.351C596.461 181.203 595.015 179.403 593.018 178.159L586.676 188.346C586.565 188.277 586.427 188.165 586.3 188.009C586.173 187.855 586.107 187.719 586.08 187.646L597.285 183.351ZM593.087 178.203C591.048 176.895 588.788 176.432 586.659 176.432V188.432C586.869 188.432 586.941 188.455 586.914 188.447C586.899 188.444 586.86 188.432 586.804 188.409C586.748 188.384 586.68 188.35 586.607 188.303L593.087 178.203ZM586.659 176.432C584.854 176.432 583.092 176.769 581.413 177.441L585.869 188.582C586.122 188.481 586.372 188.432 586.659 188.432V176.432ZM581.413 177.441C579.809 178.082 578.348 178.982 577.051 180.12L584.966 189.139C585.248 188.892 585.542 188.713 585.869 188.582L581.413 177.441ZM577.051 180.12C575.73 181.279 574.644 182.64 573.792 184.163L584.265 190.021C584.476 189.645 584.71 189.364 584.966 189.139L577.051 180.12ZM573.814 184.125C572.91 185.714 572.326 187.426 572.041 189.214L583.891 191.104C583.961 190.67 584.085 190.338 584.244 190.059L573.814 184.125ZM572.021 189.352C571.742 191.406 571.844 193.641 572.722 195.801L583.838 191.279C583.944 191.538 583.837 191.52 583.912 190.966L572.021 189.352ZM572.722 195.801C573.575 197.897 575.018 199.64 576.968 200.855L583.311 190.668C583.401 190.724 583.522 190.82 583.636 190.957C583.749 191.092 583.811 191.213 583.838 191.279L572.722 195.801ZM577.081 200.923C579.054 202.092 581.206 202.534 583.279 202.534V190.534C583.086 190.534 583.006 190.514 583.01 190.515C583.013 190.515 583.034 190.521 583.069 190.535C583.105 190.549 583.149 190.57 583.198 190.6L577.081 200.923Z" fill="#DAFF00" mask="url(#path-5-outside-2_26_15)"/>
</svg>
