<svg width="399" height="59" viewBox="0 0 399 59" fill="none" xmlns="http://www.w3.org/2000/svg">
<path d="M2.55566 54.8898L2.02175 56.7947H4H27.6466H28.782L29.0902 55.7019L33.5856 39.7662H39.7653L49.8469 56.0831L50.2866 56.7947H51.123H76.811H79.0631H79.5506H82.2761H107.794H108.52L108.97 56.2259L116.339 46.9202H143.137L145.119 55.6275L145.384 56.7947H146.581H172.099H174.071L173.545 54.8943L159.255 3.30491L158.95 2.20532H157.809H125.486H124.786L124.336 2.74217L81.1262 54.3315L79.3395 56.4646L78.0747 54.4866L66.8585 36.9453C71.0289 35.6597 74.6071 33.9506 77.5656 31.7964C81.2908 29.0877 83.7684 25.7005 84.891 21.6388C86.0131 17.6129 85.5255 13.9741 83.244 10.919C81.0337 7.95917 77.5073 5.81397 72.8787 4.36464C68.2383 2.91162 62.619 2.20532 56.0565 2.20532H18.4601H17.3228L17.0158 3.30049L2.55566 54.8898ZM43.8079 25.884H37.5017L40.18 16.3897H47.3804C50.029 16.3897 52.1822 16.6113 53.8693 17.0264L53.8693 17.0265L53.8819 17.0295C55.5705 17.4295 56.5349 18.0085 57.0368 18.603L57.0367 18.6031L57.0454 18.6132C57.4326 19.0637 57.6352 19.7113 57.3297 20.8485C57.0289 21.9685 56.3982 22.8668 55.3758 23.5793C54.2871 24.3208 52.7951 24.9146 50.8345 25.3075C48.8537 25.6875 46.5156 25.884 43.8079 25.884ZM137.155 20.631L140.07 33.4411H127.012L137.155 20.631ZM179.044 54.8898L178.51 56.7947H180.488H214.512C223.467 56.7947 231.505 55.7921 238.611 53.7651C245.741 51.7395 251.67 48.7917 256.345 44.8833C261.068 40.9586 264.239 36.1956 265.801 30.6093C267.421 24.8179 266.933 19.6401 264.134 15.2429C261.376 10.9115 256.783 7.69578 250.568 5.49082C244.346 3.28291 236.678 2.20532 227.611 2.20532H194.948H193.811L193.504 3.30049L179.044 54.8898ZM235.054 36.4365L235.051 36.4388C232.987 38.3647 230.38 39.7677 227.184 40.6199C223.961 41.4701 220.252 41.9049 216.043 41.9049H209.432L216.414 17.0951H224.039C228.507 17.0951 232.065 17.4688 234.756 18.179L234.764 18.181C237.374 18.8546 238.883 19.9907 239.642 21.4144L239.644 21.4192C240.392 22.8087 240.531 25.0372 239.605 28.3952C238.641 31.8815 237.105 34.5313 235.054 36.4365ZM207.452 43.4049H209.01L207.874 41.9049L207.452 43.4049ZM307.874 4.11016L308.408 2.20532H306.429H282.783H281.645L281.338 3.30049L266.878 54.8898L266.344 56.7947H268.323H291.969H293.107L293.414 55.6995L307.874 4.11016ZM395.973 30.8154L395.974 30.811C397.706 24.6232 397.169 19.1667 394.119 14.6368C391.17 10.2151 386.497 6.9513 380.272 4.7598C374.091 2.57372 366.869 1.5 358.635 1.5C350.794 1.5 343.408 2.49892 336.484 4.50658C329.546 6.51838 323.617 9.49953 318.731 13.4742C313.794 17.4906 310.493 22.4723 308.875 28.3952C307.144 34.5508 307.682 39.9769 310.739 44.4747C313.718 48.8583 318.404 52.0941 324.627 54.2674C330.834 56.4352 338.097 57.5 346.386 57.5C354.168 57.5 361.497 56.5182 368.363 54.5448C375.245 52.5668 381.145 49.6199 386.03 45.681C390.969 41.6984 394.297 36.7349 395.973 30.8154ZM369.461 21.8147L369.462 21.8183C370.014 23.4525 370.014 25.6102 369.268 28.3937C368.421 31.3646 367.02 33.8547 365.076 35.8967L365.069 35.9041C363.148 37.9488 360.703 39.5321 357.693 40.6365L357.689 40.638C354.712 41.7398 351.237 42.308 347.237 42.308C343.728 42.308 341.007 41.8268 338.995 40.9491C337.064 40.0943 335.886 38.8798 335.285 37.3314C334.709 35.7744 334.719 33.656 335.573 30.8425L335.58 30.818L335.587 30.7932C336.378 27.8264 337.751 25.3214 339.697 23.2462C341.649 21.1652 344.127 19.5479 347.167 18.4106C350.199 17.2763 353.73 16.692 357.784 16.692C361.353 16.692 364.038 17.1998 365.942 18.1077L365.951 18.1117C367.814 18.986 368.928 20.2221 369.461 21.8147Z" fill="#DAFF00" stroke="#DAFF00" stroke-width="3"/>
</svg>
