{
	"asset":{
		"version":"2.0",
		"generator":"Created using the official Cinema 4D glTF Exporter 1.000x284978"
	},
	"scenes":[{
		"nodes":[0]
	}],
	"nodes":[{
		"name":"Body",
		"children":[1,
		2,
		3,
		4]
	},
	{
		"scale":[1.0,
		1.0,
		1.0],
		"name":"leg_remesh",
		"translation":[-47.18062973022461,
		89.4770278930664,
		0.0],
		"rotation":[0.0,
		0.0,
		0.0,
		-1.0],
		"mesh":0
	},
	{
		"scale":[1.0,
		1.0,
		1.0],
		"name":"arm_remesh",
		"translation":[-73.24861907958985,
		369.64599609375,
		-13.952580451965332],
		"rotation":[0.0,
		0.0,
		0.2216418832540512,
		-0.9751281142234802],
		"mesh":1
	},
	{
		"scale":[1.0,
		1.0,
		1.0],
		"name":"head_remesh",
		"translation":[0.0,
		450.94769287109377,
		0.0],
		"rotation":[0.0,
		0.0,
		0.0,
		-1.0],
		"mesh":2
	},
	{
		"scale":[1.0,
		1.0,
		1.0],
		"name":"torso_remesh",
		"translation":[0.0,
		244.5805206298828,
		0.0],
		"rotation":[0.0,
		0.0,
		0.0,
		-1.0],
		"mesh":3
	}],
	"meshes":[{
		"name":"leg_remesh",
		"primitives":[{
			"attributes":{
				"POSITION":1,
				"NORMAL":2,
				"TEXCOORD_0":3
			},
			"indices":0,
			"material":0
		}]
	},
	{
		"name":"arm_remesh",
		"primitives":[{
			"attributes":{
				"POSITION":5,
				"NORMAL":6,
				"TEXCOORD_0":7
			},
			"indices":4,
			"material":0
		}]
	},
	{
		"name":"head_remesh",
		"primitives":[{
			"attributes":{
				"POSITION":9,
				"NORMAL":10,
				"TEXCOORD_0":11
			},
			"indices":8,
			"material":0
		}]
	},
	{
		"name":"torso_remesh",
		"primitives":[{
			"attributes":{
				"POSITION":13,
				"NORMAL":14,
				"TEXCOORD_0":15
			},
			"indices":12,
			"material":0
		}]
	}],
	"accessors":[{
		"bufferView":0,
		"type":"SCALAR",
		"componentType":5123,
		"count":6921,
		"byteOffset":0,
		"min":[0],
		"max":[1178]
	},
	{
		"bufferView":1,
		"type":"VEC3",
		"componentType":5126,
		"count":1179,
		"byteOffset":0,
		"min":[-151.52423095703126,
		-658.4635620117188,
		-118.089111328125],
		"max":[45.477638244628909,
		85.38892364501953,
		79.4447250366211]
	},
	{
		"bufferView":1,
		"type":"VEC3",
		"componentType":5126,
		"count":1179,
		"byteOffset":12,
		"min":[-0.9985476136207581,
		-0.9998950362205505,
		-0.9998353719711304],
		"max":[0.999640166759491,
		0.9981076717376709,
		0.9998145699501038]
	},
	{
		"bufferView":1,
		"type":"VEC2",
		"componentType":5126,
		"count":1179,
		"byteOffset":24,
		"min":[0.1677633821964264,
		0.35830193758010867],
		"max":[0.4977332353591919,
		0.9999569654464722]
	},
	{
		"bufferView":2,
		"type":"SCALAR",
		"componentType":5123,
		"count":4167,
		"byteOffset":0,
		"min":[0],
		"max":[701]
	},
	{
		"bufferView":3,
		"type":"VEC3",
		"componentType":5126,
		"count":702,
		"byteOffset":0,
		"min":[-94.20868682861328,
		-408.1055908203125,
		-57.48896408081055],
		"max":[20.282196044921876,
		39.516876220703128,
		107.61843872070313]
	},
	{
		"bufferView":3,
		"type":"VEC3",
		"componentType":5126,
		"count":702,
		"byteOffset":12,
		"min":[-0.9998689889907837,
		-0.9936407208442688,
		-0.9960951209068298],
		"max":[0.9997708797454834,
		0.9975910782814026,
		0.9971708655357361]
	},
	{
		"bufferView":3,
		"type":"VEC2",
		"componentType":5126,
		"count":702,
		"byteOffset":24,
		"min":[0.0018205696251243353,
		0.14584162831306458],
		"max":[0.4164627194404602,
		0.5278196334838867]
	},
	{
		"bufferView":4,
		"type":"SCALAR",
		"componentType":5123,
		"count":2130,
		"byteOffset":0,
		"min":[0],
		"max":[356]
	},
	{
		"bufferView":5,
		"type":"VEC3",
		"componentType":5126,
		"count":357,
		"byteOffset":0,
		"min":[-90.28659057617188,
		-23.166492462158204,
		-64.98011016845703],
		"max":[90.71432495117188,
		138.55775451660157,
		65.01282501220703]
	},
	{
		"bufferView":5,
		"type":"VEC3",
		"componentType":5126,
		"count":357,
		"byteOffset":12,
		"min":[-0.9975395202636719,
		-0.9980280995368958,
		-0.9998340010643005],
		"max":[0.9941931962966919,
		0.9994115233421326,
		0.999210000038147]
	},
	{
		"bufferView":5,
		"type":"VEC2",
		"componentType":5126,
		"count":357,
		"byteOffset":24,
		"min":[0.28055790066719057,
		0.0005496331723406911],
		"max":[0.719444751739502,
		0.1397014558315277]
	},
	{
		"bufferView":6,
		"type":"SCALAR",
		"componentType":5123,
		"count":8118,
		"byteOffset":0,
		"min":[0],
		"max":[1357]
	},
	{
		"bufferView":7,
		"type":"VEC3",
		"componentType":5126,
		"count":1358,
		"byteOffset":0,
		"min":[-102.73503112792969,
		-187.15823364257813,
		-72.70787811279297],
		"max":[108.10001373291016,
		204.2711639404297,
		82.26496124267578]
	},
	{
		"bufferView":7,
		"type":"VEC3",
		"componentType":5126,
		"count":1358,
		"byteOffset":12,
		"min":[-0.9999416470527649,
		-0.9999711513519287,
		-0.9999526143074036],
		"max":[0.9999405145645142,
		0.9989220499992371,
		0.9998816847801209]
	},
	{
		"bufferView":7,
		"type":"VEC2",
		"componentType":5126,
		"count":1358,
		"byteOffset":24,
		"min":[0.23226556181907655,
		0.023091692477464677],
		"max":[0.7598097324371338,
		0.5447618961334229]
	}],
	"bufferViews":[{
		"buffer":0,
		"byteOffset":0,
		"byteLength":13842,
		"target":34963
	},
	{
		"buffer":0,
		"byteOffset":13844,
		"byteLength":37728,
		"target":34962,
		"byteStride":32
	},
	{
		"buffer":1,
		"byteOffset":0,
		"byteLength":8334,
		"target":34963
	},
	{
		"buffer":1,
		"byteOffset":8336,
		"byteLength":22464,
		"target":34962,
		"byteStride":32
	},
	{
		"buffer":2,
		"byteOffset":0,
		"byteLength":4260,
		"target":34963
	},
	{
		"buffer":2,
		"byteOffset":4260,
		"byteLength":11424,
		"target":34962,
		"byteStride":32
	},
	{
		"buffer":3,
		"byteOffset":0,
		"byteLength":16236,
		"target":34963
	},
	{
		"buffer":3,
		"byteOffset":16236,
		"byteLength":43456,
		"target":34962,
		"byteStride":32
	}],
	"buffers":[{
		"uri":"data:application/octet-stream;base64,",
		"byteLength":51572
	},
	{
		"uri":"data:application/octet-stream;base64,",
		"byteLength":30800
	},
	{
		"uri":"data:application/octet-stream;base64,",
		"byteLength":15684
	},
	{
		"uri":"data:application/octet-stream;base64,",
		"byteLength":59692
	}],
	"materials":[{
		"pbrMetallicRoughness":{
			"baseColorFactor":[1.0,
			1.0,
			1.0,
			1.0],
			"metallicFactor":0.0,
			"roughnessFactor":0.5
		},
		"emissiveFactor":[0.0,
		0.0,
		0.0],
		"alphaMode":"OPAQUE",
		"doubleSided":true,
		"name":"Default"
	}]
}