{
	"asset":{
		"generator":"Created using the official Cinema 4D glTF Exporter 1.000x284978",
		"version":"2.0"
	},
	"scenes":[{
		"nodes":[0]
	}],
	"buffers":[{
		"uri":"data:application/octet-stream;base64,",
		"byteLength":792
	},
	{
		"uri":"data:application/octet-stream;base64,",
		"byteLength":440
	},
	{
		"uri":"data:application/octet-stream;base64,",
		"byteLength":440
	},
	{
		"uri":"data:application/octet-stream;base64,",
		"byteLength":440
	},
	{
		"uri":"data:application/octet-stream;base64,",
		"byteLength":440
	},
	{
		"uri":"data:application/octet-stream;base64,",
		"byteLength":440
	},
	{
		"uri":"data:application/octet-stream;base64,",
		"byteLength":440
	},
	{
		"uri":"data:application/octet-stream;base64,",
		"byteLength":440
	},
	{
		"uri":"data:application/octet-stream;base64,",
		"byteLength":440
	},
	{
		"uri":"data:application/octet-stream;base64,",
		"byteLength":440
	},
	{
		"uri":"data:application/octet-stream;base64,",
		"byteLength":440
	},
	{
		"uri":"data:application/octet-stream;base64,",
		"byteLength":440
	}],
	"nodes":[{
		"name":"Joint",
		"translation":[-12.061988830566407,
		660.0701904296875,
		6.175246238708496],
		"children":[1,
		5,
		9],
		"rotation":[-0.03066948801279068,
		-0.3625631630420685,
		-0.027942465618252755,
		0.9310352206230164],
		"scale":[1.0,
		1.0,
		1.0]
	},
	{
		"name":"Joint_2",
		"translation":[-80.59220123291016,
		-69.89759826660156,
		-0.23199999332427979],
		"children":[2],
		"rotation":[0.7402414083480835,
		0.2056231051683426,
		0.1656114012002945,
		-0.6183321475982666],
		"scale":[1.0,
		1.0,
		1.0]
	},
	{
		"name":"Joint_2_2",
		"translation":[23.357200622558595,
		-235.60350036621095,
		-1.1368683772161604e-13],
		"children":[3],
		"rotation":[0.9395100474357605,
		0.08239749819040299,
		0.06363912671804428,
		0.3263151943683624],
		"scale":[1.0,
		1.0,
		1.0]
	},
	{
		"name":"Joint_3",
		"translation":[17.164400100708009,
		-370.48040771484377,
		-64.94979858398438],
		"children":[4],
		"rotation":[0.38744688034057619,
		0.033823706209659579,
		0.11289037764072418,
		0.9143285155296326],
		"scale":[1.0,
		1.0,
		1.0]
	},
	{
		"name":"Joint_4",
		"translation":[-18.054399490356447,
		-14.973099708557129,
		118.7197036743164],
		"rotation":[0.0,
		0.0,
		0.0,
		-1.0],
		"scale":[1.0,
		1.0,
		1.0]
	},
	{
		"name":"Joint_1",
		"translation":[89.74030303955078,
		-69.89759826660156,
		-0.23199999332427979],
		"children":[6],
		"rotation":[0.708665132522583,
		-0.15529803931713105,
		-0.14771564304828645,
		-0.6722025871276856],
		"scale":[1.0,
		1.0,
		1.0]
	},
	{
		"name":"Joint_2_3",
		"translation":[-26.86039924621582,
		-235.60350036621095,
		-2.2737367544323208e-13],
		"children":[7],
		"rotation":[0.8778166174888611,
		-0.06674320995807648,
		0.033145442605018619,
		0.4731646180152893],
		"scale":[1.0,
		1.0,
		1.0]
	},
	{
		"name":"Joint_3_2",
		"translation":[-27.62420082092285,
		-367.0873107910156,
		-64.94979858398438],
		"children":[8],
		"rotation":[0.14898911118507386,
		-0.01572873815894127,
		-0.06248997524380684,
		0.9867369532585144],
		"scale":[1.0,
		1.0,
		1.0]
	},
	{
		"name":"Joint_4_2",
		"translation":[21.715700149536134,
		-14.973099708557129,
		118.7197036743164],
		"rotation":[0.0,
		0.0,
		0.0,
		-1.0],
		"scale":[1.0,
		1.0,
		1.0]
	},
	{
		"name":"Joint_3_3",
		"translation":[-3.552713678800501e-15,
		193.1331024169922,
		1.4210854715202005e-14],
		"children":[10,
		13,
		14],
		"rotation":[0.32101041078567507,
		0.00592670775949955,
		-0.10895087569952011,
		0.9407693147659302],
		"scale":[1.0,
		1.0,
		1.0]
	},
	{
		"name":"Joint_3_4",
		"translation":[114.00740051269531,
		13.844499588012696,
		5.684341886080802e-14],
		"children":[11],
		"rotation":[0.0654461532831192,
		0.00919872336089611,
		0.6351679563522339,
		0.769541323184967],
		"scale":[1.0,
		1.0,
		1.0]
	},
	{
		"name":"Joint_4_3",
		"translation":[39.194000244140628,
		-138.8188934326172,
		-18.813400268554689],
		"children":[12],
		"rotation":[-0.08609920740127564,
		-0.10259957611560822,
		0.03543286398053169,
		-0.9903558492660523],
		"scale":[1.0,
		1.0,
		1.0]
	},
	{
		"name":"Joint_4_4",
		"translation":[34.60940170288086,
		-190.69090270996095,
		85.5271987915039],
		"rotation":[0.0,
		0.0,
		0.0,
		-1.0],
		"scale":[1.0,
		1.0,
		1.0]
	},
	{
		"name":"Joint_4_5",
		"translation":[-8.526512829121202e-14,
		184.50819396972657,
		0.6406999826431274],
		"rotation":[0.0,
		0.0,
		0.0,
		-1.0],
		"scale":[1.0,
		1.0,
		1.0]
	},
	{
		"name":"Joint_2_4",
		"translation":[-104.50679779052735,
		13.844499588012696,
		5.684341886080802e-14],
		"children":[15],
		"rotation":[0.11584924906492233,
		-0.06933240592479706,
		-0.6392784714698792,
		0.7570303678512573],
		"scale":[1.0,
		1.0,
		1.0]
	},
	{
		"name":"Joint_4_6",
		"translation":[-55.05609893798828,
		-138.8188934326172,
		-18.813400268554689],
		"children":[16],
		"rotation":[0.03618945553898811,
		-0.05764329060912132,
		-0.09417581558227539,
		0.9932262897491455],
		"scale":[1.0,
		1.0,
		1.0]
	},
	{
		"name":"Joint_4_7",
		"translation":[-20.35849952697754,
		-171.35040283203126,
		85.5271987915039],
		"rotation":[0.0,
		0.0,
		0.0,
		-1.0],
		"scale":[1.0,
		1.0,
		1.0]
	}],
	"accessors":[{
		"bufferView":0,
		"type":"SCALAR",
		"componentType":5126,
		"count":22,
		"byteOffset":0,
		"min":[0.0],
		"max":[0.699999988079071]
	},
	{
		"bufferView":0,
		"type":"VEC3",
		"componentType":5126,
		"count":22,
		"byteOffset":88,
		"min":[-13.54527759552002,
		658.8654174804688,
		4.858215808868408],
		"max":[-11.996053695678711,
		660.2474365234375,
		6.3043293952941898]
	},
	{
		"bufferView":1,
		"type":"SCALAR",
		"componentType":5126,
		"count":22,
		"byteOffset":0,
		"min":[0.0],
		"max":[0.699999988079071]
	},
	{
		"bufferView":1,
		"type":"VEC4",
		"componentType":5126,
		"count":22,
		"byteOffset":88,
		"min":[-0.03079310618340969,
		-0.36273306608200076,
		-0.027942465618252755,
		-0.9318829774856567],
		"max":[0.02812625840306282,
		0.36192435026168826,
		0.010228528641164303,
		0.9317087531089783]
	},
	{
		"bufferView":2,
		"type":"SCALAR",
		"componentType":5126,
		"count":22,
		"byteOffset":0,
		"min":[0.0],
		"max":[0.699999988079071]
	},
	{
		"bufferView":2,
		"type":"VEC4",
		"componentType":5126,
		"count":22,
		"byteOffset":88,
		"min":[0.7076857686042786,
		0.16132818162441255,
		0.1656114012002945,
		-0.6560301780700684],
		"max":[0.7577295899391174,
		0.2056231051683426,
		0.2157929539680481,
		-0.596675455570221]
	},
	{
		"bufferView":3,
		"type":"SCALAR",
		"componentType":5126,
		"count":22,
		"byteOffset":0,
		"min":[0.0],
		"max":[0.699999988079071]
	},
	{
		"bufferView":3,
		"type":"VEC4",
		"componentType":5126,
		"count":22,
		"byteOffset":88,
		"min":[0.9221407771110535,
		0.07644204795360565,
		0.05233344808220863,
		0.3185938596725464],
		"max":[0.943313479423523,
		0.08239749819040299,
		0.08764715492725373,
		0.36986270546913149]
	},
	{
		"bufferView":4,
		"type":"SCALAR",
		"componentType":5126,
		"count":22,
		"byteOffset":0,
		"min":[0.0],
		"max":[0.699999988079071]
	},
	{
		"bufferView":4,
		"type":"VEC4",
		"componentType":5126,
		"count":22,
		"byteOffset":88,
		"min":[0.34706589579582217,
		0.027275491505861284,
		0.02239273302257061,
		0.9143285155296326],
		"max":[0.38744688034057619,
		0.033823706209659579,
		0.11289037764072418,
		0.9370286464691162]
	},
	{
		"bufferView":5,
		"type":"SCALAR",
		"componentType":5126,
		"count":22,
		"byteOffset":0,
		"min":[0.0],
		"max":[0.699999988079071]
	},
	{
		"bufferView":5,
		"type":"VEC4",
		"componentType":5126,
		"count":22,
		"byteOffset":88,
		"min":[0.708665132522583,
		-0.186432883143425,
		-0.14771564304828645,
		-0.6722025871276856],
		"max":[0.7244822382926941,
		-0.15529803931713105,
		-0.11477624624967575,
		-0.6537320613861084]
	},
	{
		"bufferView":6,
		"type":"SCALAR",
		"componentType":5126,
		"count":22,
		"byteOffset":0,
		"min":[0.0],
		"max":[0.699999988079071]
	},
	{
		"bufferView":6,
		"type":"VEC4",
		"componentType":5126,
		"count":22,
		"byteOffset":88,
		"min":[0.8778166174888611,
		-0.07702167332172394,
		0.02240242063999176,
		0.44020381569862368],
		"max":[0.8941224813461304,
		-0.06291083246469498,
		0.049297165125608447,
		0.4731646180152893]
	},
	{
		"bufferView":7,
		"type":"SCALAR",
		"componentType":5126,
		"count":22,
		"byteOffset":0,
		"min":[0.0],
		"max":[0.699999988079071]
	},
	{
		"bufferView":7,
		"type":"VEC4",
		"componentType":5126,
		"count":22,
		"byteOffset":88,
		"min":[0.14898911118507386,
		-0.021028516814112665,
		-0.07710279524326325,
		0.9768869876861572],
		"max":[0.20108409225940705,
		-0.015583215281367302,
		-0.051043860614299777,
		0.9867556691169739]
	},
	{
		"bufferView":8,
		"type":"SCALAR",
		"componentType":5126,
		"count":22,
		"byteOffset":0,
		"min":[0.0],
		"max":[0.699999988079071]
	},
	{
		"bufferView":8,
		"type":"VEC4",
		"componentType":5126,
		"count":22,
		"byteOffset":88,
		"min":[0.31940847635269167,
		-0.0041993665508925919,
		-0.13088208436965943,
		0.9385254383087158],
		"max":[0.32101041078567507,
		0.00592670775949955,
		-0.10895087569952011,
		0.9407693147659302]
	},
	{
		"bufferView":9,
		"type":"SCALAR",
		"componentType":5126,
		"count":22,
		"byteOffset":0,
		"min":[0.0],
		"max":[0.699999988079071]
	},
	{
		"bufferView":9,
		"type":"VEC4",
		"componentType":5126,
		"count":22,
		"byteOffset":88,
		"min":[0.037709031254053119,
		-0.02142140455543995,
		0.6071577072143555,
		0.769541323184967],
		"max":[0.06563334912061691,
		0.009888401255011559,
		0.6351679563522339,
		0.7932407259941101]
	},
	{
		"bufferView":10,
		"type":"SCALAR",
		"componentType":5126,
		"count":22,
		"byteOffset":0,
		"min":[0.0],
		"max":[0.699999988079071]
	},
	{
		"bufferView":10,
		"type":"VEC4",
		"componentType":5126,
		"count":22,
		"byteOffset":88,
		"min":[-0.13205817341804505,
		-0.10506945103406906,
		0.035307884216308597,
		-0.9913294911384583],
		"max":[-0.0813194066286087,
		-0.09600460529327393,
		0.039114899933338168,
		-0.9852105975151062]
	},
	{
		"bufferView":11,
		"type":"SCALAR",
		"componentType":5126,
		"count":22,
		"byteOffset":0,
		"min":[0.0],
		"max":[0.699999988079071]
	},
	{
		"bufferView":11,
		"type":"VEC4",
		"componentType":5126,
		"count":22,
		"byteOffset":88,
		"min":[0.10871873050928116,
		-0.079153873026371,
		-0.667014479637146,
		0.7334192395210266],
		"max":[0.11584924906492233,
		-0.06546048074960709,
		-0.6392784714698792,
		0.7570303678512573]
	},
	{
		"bufferView":12,
		"type":"SCALAR",
		"componentType":5126,
		"count":22,
		"byteOffset":0,
		"min":[0.0],
		"max":[0.699999988079071]
	},
	{
		"bufferView":12,
		"type":"VEC4",
		"componentType":5126,
		"count":22,
		"byteOffset":88,
		"min":[0.03174692392349243,
		-0.07766663283109665,
		-0.0956045612692833,
		0.9879791736602783],
		"max":[0.09359612315893173,
		-0.057439714670181277,
		-0.09417581558227539,
		0.9933295845985413]
	}],
	"bufferViews":[{
		"buffer":0,
		"byteOffset":0,
		"byteLength":352
	},
	{
		"buffer":0,
		"byteOffset":352,
		"byteLength":440
	},
	{
		"buffer":1,
		"byteOffset":0,
		"byteLength":440
	},
	{
		"buffer":2,
		"byteOffset":0,
		"byteLength":440
	},
	{
		"buffer":3,
		"byteOffset":0,
		"byteLength":440
	},
	{
		"buffer":4,
		"byteOffset":0,
		"byteLength":440
	},
	{
		"buffer":5,
		"byteOffset":0,
		"byteLength":440
	},
	{
		"buffer":6,
		"byteOffset":0,
		"byteLength":440
	},
	{
		"buffer":7,
		"byteOffset":0,
		"byteLength":440
	},
	{
		"buffer":8,
		"byteOffset":0,
		"byteLength":440
	},
	{
		"buffer":9,
		"byteOffset":0,
		"byteLength":440
	},
	{
		"buffer":10,
		"byteOffset":0,
		"byteLength":440
	},
	{
		"buffer":11,
		"byteOffset":0,
		"byteLength":440
	}],
	"animations":[{
		"samplers":[{
			"input":0,
			"interpolation":"LINEAR",
			"output":1
		},
		{
			"input":2,
			"interpolation":"LINEAR",
			"output":3
		},
		{
			"input":4,
			"interpolation":"LINEAR",
			"output":5
		},
		{
			"input":6,
			"interpolation":"LINEAR",
			"output":7
		},
		{
			"input":8,
			"interpolation":"LINEAR",
			"output":9
		},
		{
			"input":10,
			"interpolation":"LINEAR",
			"output":11
		},
		{
			"input":12,
			"interpolation":"LINEAR",
			"output":13
		},
		{
			"input":14,
			"interpolation":"LINEAR",
			"output":15
		},
		{
			"input":16,
			"interpolation":"LINEAR",
			"output":17
		},
		{
			"input":18,
			"interpolation":"LINEAR",
			"output":19
		},
		{
			"input":20,
			"interpolation":"LINEAR",
			"output":21
		},
		{
			"input":22,
			"interpolation":"LINEAR",
			"output":23
		},
		{
			"input":24,
			"interpolation":"LINEAR",
			"output":25
		}],
		"channels":[{
			"sampler":0,
			"target":{
				"node":0,
				"path":"translation"
			}
		},
		{
			"sampler":1,
			"target":{
				"node":0,
				"path":"rotation"
			}
		},
		{
			"sampler":2,
			"target":{
				"node":1,
				"path":"rotation"
			}
		},
		{
			"sampler":3,
			"target":{
				"node":2,
				"path":"rotation"
			}
		},
		{
			"sampler":4,
			"target":{
				"node":3,
				"path":"rotation"
			}
		},
		{
			"sampler":5,
			"target":{
				"node":5,
				"path":"rotation"
			}
		},
		{
			"sampler":6,
			"target":{
				"node":6,
				"path":"rotation"
			}
		},
		{
			"sampler":7,
			"target":{
				"node":7,
				"path":"rotation"
			}
		},
		{
			"sampler":8,
			"target":{
				"node":9,
				"path":"rotation"
			}
		},
		{
			"sampler":9,
			"target":{
				"node":10,
				"path":"rotation"
			}
		},
		{
			"sampler":10,
			"target":{
				"node":11,
				"path":"rotation"
			}
		},
		{
			"sampler":11,
			"target":{
				"node":14,
				"path":"rotation"
			}
		},
		{
			"sampler":12,
			"target":{
				"node":15,
				"path":"rotation"
			}
		}]
	}]
}