{
	"asset":{
		"generator":"Created using the official Cinema 4D glTF Exporter 1.000x284978",
		"version":"2.0"
	},
	"scenes":[{
		"nodes":[0]
	}],
	"buffers":[{
		"uri":"data:application/octet-stream;base64,",
		"byteLength":10836
	},
	{
		"uri":"data:application/octet-stream;base64,",
		"byteLength":6020
	},
	{
		"uri":"data:application/octet-stream;base64,",
		"byteLength":6020
	},
	{
		"uri":"data:application/octet-stream;base64,",
		"byteLength":6020
	},
	{
		"uri":"data:application/octet-stream;base64,",
		"byteLength":6020
	},
	{
		"uri":"data:application/octet-stream;base64,",
		"byteLength":6020
	},
	{
		"uri":"data:application/octet-stream;base64,",
		"byteLength":6020
	},
	{
		"uri":"data:application/octet-stream;base64,",
		"byteLength":6020
	},
	{
		"uri":"data:application/octet-stream;base64,",
		"byteLength":6020
	},
	{
		"uri":"data:application/octet-stream;base64,",
		"byteLength":6020
	},
	{
		"uri":"data:application/octet-stream;base64,",
		"byteLength":6020
	},
	{
		"uri":"data:application/octet-stream;base64,",
		"byteLength":6020
	}],
	"nodes":[{
		"name":"Joint",
		"translation":[3.232239246368408,
		631.6470336914063,
		-12.566161155700684],
		"children":[1,
		5,
		9],
		"rotation":[0.036101311445236209,
		0.3678094446659088,
		0.01417535450309515,
		-0.9290919899940491],
		"scale":[1.0,
		1.0,
		1.0]
	},
	{
		"name":"Joint_2",
		"translation":[-80.59220123291016,
		-69.89759826660156,
		-0.23199999332427979],
		"children":[2],
		"rotation":[-0.0812855213880539,
		-0.11457837373018265,
		-0.17856073379516602,
		0.973848283290863],
		"scale":[1.0,
		1.0,
		1.0]
	},
	{
		"name":"Joint_2_2",
		"translation":[23.357200622558595,
		-235.60350036621095,
		0.0],
		"children":[3],
		"rotation":[0.2874768078327179,
		-0.06062722206115723,
		-0.028655238449573518,
		0.9554372429847717],
		"scale":[1.0,
		1.0,
		1.0]
	},
	{
		"name":"Joint_3",
		"translation":[17.164400100708009,
		-370.48040771484377,
		-64.94979858398438],
		"children":[4],
		"rotation":[0.114202119410038,
		0.022933676838874818,
		-0.09995593875646591,
		-0.9881501793861389],
		"scale":[1.0,
		1.0,
		1.0]
	},
	{
		"name":"Joint_4",
		"translation":[-18.054399490356447,
		-14.973099708557129,
		118.7197036743164],
		"rotation":[-5.551115123125783e-17,
		0.0,
		0.0,
		-1.0],
		"scale":[1.0,
		1.0,
		1.0]
	},
	{
		"name":"Joint_1",
		"translation":[89.74030303955078,
		-69.89759826660156,
		-0.23199999332427979],
		"children":[6],
		"rotation":[-0.28938767313957217,
		0.08279535174369812,
		0.1461120992898941,
		0.9423645734786987],
		"scale":[1.0,
		1.0,
		1.0]
	},
	{
		"name":"Joint_2_3",
		"translation":[-26.86039924621582,
		-235.60350036621095,
		5.684341886080802e-14],
		"children":[7],
		"rotation":[0.2747308611869812,
		-0.1374816596508026,
		-0.03492676466703415,
		0.951000452041626],
		"scale":[1.0,
		1.0,
		1.0]
	},
	{
		"name":"Joint_3_2",
		"translation":[-27.62420082092285,
		-367.0873107910156,
		-64.94979858398438],
		"children":[8],
		"rotation":[-0.03525269031524658,
		-0.0016393616097047926,
		0.03820427507162094,
		-0.9986465573310852],
		"scale":[1.0,
		1.0,
		1.0]
	},
	{
		"name":"Joint_4_2",
		"translation":[21.715700149536134,
		-14.973099708557129,
		118.7197036743164],
		"rotation":[-6.938893903907229e-18,
		0.0,
		0.0,
		-1.0],
		"scale":[1.0,
		1.0,
		1.0]
	},
	{
		"name":"Joint_3_3",
		"translation":[8.881784197001253e-16,
		193.1331024169922,
		0.0],
		"children":[10,
		13,
		14],
		"rotation":[0.010172316804528237,
		0.06107292324304581,
		0.018510645255446435,
		0.9979097843170166],
		"scale":[1.0,
		1.0,
		1.0]
	},
	{
		"name":"Joint_3_4",
		"translation":[114.00740051269531,
		13.844499588012696,
		7.105427357601002e-15],
		"children":[11],
		"rotation":[0.08275672793388367,
		0.15301379561424256,
		0.006068003363907337,
		0.9847341179847717],
		"scale":[1.0,
		1.0,
		1.0]
	},
	{
		"name":"Joint_4_3",
		"translation":[39.194000244140628,
		-138.8188934326172,
		-18.813400268554689],
		"children":[12],
		"rotation":[0.12942448258399964,
		0.08092717826366425,
		-0.06268943101167679,
		-0.9862911105155945],
		"scale":[1.0,
		1.0,
		1.0]
	},
	{
		"name":"Joint_4_4",
		"translation":[34.60940170288086,
		-190.69090270996095,
		85.5271987915039],
		"rotation":[0.0,
		0.0,
		0.0,
		-1.0],
		"scale":[1.0,
		1.0,
		1.0]
	},
	{
		"name":"Joint_4_5",
		"translation":[-1.4210854715202005e-14,
		184.50819396972657,
		0.6406999826431274],
		"rotation":[-1.734723475976807e-17,
		0.0,
		0.0,
		-1.0],
		"scale":[1.0,
		1.0,
		1.0]
	},
	{
		"name":"Joint_2_4",
		"translation":[-104.50679779052735,
		13.844499588012696,
		-2.1316282072803007e-14],
		"children":[15],
		"rotation":[-0.23395220935344697,
		-0.033944085240364078,
		0.07111812382936478,
		-0.9690492153167725],
		"scale":[1.0,
		1.0,
		1.0]
	},
	{
		"name":"Joint_4_6",
		"translation":[-55.05609893798828,
		-138.8188934326172,
		-18.813400268554689],
		"children":[16],
		"rotation":[-0.08174867928028107,
		-0.020788686349987985,
		-0.06554116308689118,
		0.9942783117294312],
		"scale":[1.0,
		1.0,
		1.0]
	},
	{
		"name":"Joint_4_7",
		"translation":[-20.35849952697754,
		-171.35040283203126,
		85.5271987915039],
		"rotation":[-2.7755575615628916e-17,
		-2.7755575615628916e-17,
		7.703719777548944e-34,
		-1.0],
		"scale":[1.0,
		1.0,
		1.0]
	}],
	"accessors":[{
		"bufferView":0,
		"type":"SCALAR",
		"componentType":5126,
		"count":301,
		"byteOffset":0,
		"min":[0.0],
		"max":[10.0]
	},
	{
		"bufferView":0,
		"type":"VEC3",
		"componentType":5126,
		"count":301,
		"byteOffset":1204,
		"min":[-0.5238783955574036,
		631.5120239257813,
		-13.931142807006836],
		"max":[5.602200031280518,
		635.5836181640625,
		-4.772733211517334]
	},
	{
		"bufferView":1,
		"type":"SCALAR",
		"componentType":5126,
		"count":301,
		"byteOffset":0,
		"min":[0.0],
		"max":[10.0]
	},
	{
		"bufferView":1,
		"type":"VEC4",
		"componentType":5126,
		"count":301,
		"byteOffset":1204,
		"min":[-0.041303377598524097,
		-0.37482139468193056,
		-0.017334362491965295,
		-0.9292685985565186],
		"max":[0.0410921573638916,
		0.37407395243644717,
		0.016339194029569627,
		0.9295875430107117]
	},
	{
		"bufferView":2,
		"type":"SCALAR",
		"componentType":5126,
		"count":301,
		"byteOffset":0,
		"min":[0.0],
		"max":[10.0]
	},
	{
		"bufferView":2,
		"type":"VEC4",
		"componentType":5126,
		"count":301,
		"byteOffset":1204,
		"min":[-0.08405149728059769,
		-0.11606115847826004,
		-0.18096823990345,
		0.973504364490509],
		"max":[-0.05714061111211777,
		-0.11420701444149018,
		-0.17777931690216065,
		0.9753246903419495]
	},
	{
		"bufferView":3,
		"type":"SCALAR",
		"componentType":5126,
		"count":301,
		"byteOffset":0,
		"min":[0.0],
		"max":[10.0]
	},
	{
		"bufferView":3,
		"type":"VEC4",
		"componentType":5126,
		"count":301,
		"byteOffset":1204,
		"min":[0.2598719000816345,
		-0.06400608271360398,
		-0.028655238449573518,
		0.9551780223846436],
		"max":[0.2888099253177643,
		-0.0544828362762928,
		-0.024638039991259576,
		0.9636973142623901]
	},
	{
		"bufferView":4,
		"type":"SCALAR",
		"componentType":5126,
		"count":301,
		"byteOffset":0,
		"min":[0.0],
		"max":[10.0]
	},
	{
		"bufferView":4,
		"type":"VEC4",
		"componentType":5126,
		"count":301,
		"byteOffset":1204,
		"min":[0.1047416627407074,
		0.021776782348752023,
		-0.10235757380723953,
		-0.9890856146812439],
		"max":[0.11637530475854874,
		0.022970084100961686,
		-0.09828414022922516,
		-0.988045871257782]
	},
	{
		"bufferView":5,
		"type":"SCALAR",
		"componentType":5126,
		"count":301,
		"byteOffset":0,
		"min":[0.0],
		"max":[10.0]
	},
	{
		"bufferView":5,
		"type":"VEC4",
		"componentType":5126,
		"count":301,
		"byteOffset":1204,
		"min":[-0.28938767313957217,
		0.082739919424057,
		0.14299005270004273,
		0.9422160387039185],
		"max":[-0.2723816931247711,
		0.08559513837099076,
		0.14808377623558045,
		0.9473157525062561]
	},
	{
		"bufferView":6,
		"type":"SCALAR",
		"componentType":5126,
		"count":301,
		"byteOffset":0,
		"min":[0.0],
		"max":[10.0]
	},
	{
		"bufferView":6,
		"type":"VEC4",
		"componentType":5126,
		"count":301,
		"byteOffset":1204,
		"min":[0.2638550102710724,
		-0.1390218734741211,
		-0.03591953590512276,
		0.9507662653923035],
		"max":[0.27550581097602847,
		-0.13178834319114686,
		-0.03245165944099426,
		0.9542009234428406]
	},
	{
		"bufferView":7,
		"type":"SCALAR",
		"componentType":5126,
		"count":301,
		"byteOffset":0,
		"min":[0.0],
		"max":[10.0]
	},
	{
		"bufferView":7,
		"type":"VEC4",
		"componentType":5126,
		"count":301,
		"byteOffset":1204,
		"min":[-0.03701913356781006,
		-0.002061480889096856,
		-0.03867901489138603,
		-0.9989412426948547],
		"max":[0.03768622875213623,
		0.0014329797122627497,
		0.03973550349473953,
		0.9986708760261536]
	},
	{
		"bufferView":8,
		"type":"SCALAR",
		"componentType":5126,
		"count":301,
		"byteOffset":0,
		"min":[0.0],
		"max":[10.0]
	},
	{
		"bufferView":8,
		"type":"VEC4",
		"componentType":5126,
		"count":301,
		"byteOffset":1204,
		"min":[0.00929772388190031,
		0.057804591953754428,
		0.017599964514374734,
		0.9979020357131958],
		"max":[0.011530513875186444,
		0.061151809990406039,
		0.019314708188176156,
		0.998102605342865]
	},
	{
		"bufferView":9,
		"type":"SCALAR",
		"componentType":5126,
		"count":301,
		"byteOffset":0,
		"min":[0.0],
		"max":[10.0]
	},
	{
		"bufferView":9,
		"type":"VEC4",
		"componentType":5126,
		"count":301,
		"byteOffset":1204,
		"min":[0.07466667145490647,
		0.14741145074367524,
		0.005681001581251621,
		0.9834811687469482],
		"max":[0.0853610634803772,
		0.16135114431381226,
		0.028551654890179635,
		0.9855184555053711]
	},
	{
		"bufferView":10,
		"type":"SCALAR",
		"componentType":5126,
		"count":301,
		"byteOffset":0,
		"min":[0.0],
		"max":[10.0]
	},
	{
		"bufferView":10,
		"type":"VEC4",
		"componentType":5126,
		"count":301,
		"byteOffset":1204,
		"min":[0.12899595499038697,
		0.07990123331546784,
		-0.06273692101240158,
		-0.986361026763916],
		"max":[0.1443171352148056,
		0.09697990119457245,
		-0.05605588108301163,
		-0.9832404851913452]
	},
	{
		"bufferView":11,
		"type":"SCALAR",
		"componentType":5126,
		"count":301,
		"byteOffset":0,
		"min":[0.0],
		"max":[10.0]
	},
	{
		"bufferView":11,
		"type":"VEC4",
		"componentType":5126,
		"count":301,
		"byteOffset":1204,
		"min":[-0.23576144874095918,
		-0.03596291318535805,
		0.06571763008832932,
		-0.9723613858222961],
		"max":[-0.2127494066953659,
		-0.02276642434298992,
		0.09388550370931626,
		-0.9686332941055298]
	},
	{
		"bufferView":12,
		"type":"SCALAR",
		"componentType":5126,
		"count":301,
		"byteOffset":0,
		"min":[0.0],
		"max":[10.0]
	},
	{
		"bufferView":12,
		"type":"VEC4",
		"componentType":5126,
		"count":301,
		"byteOffset":1204,
		"min":[-0.0860355868935585,
		-0.026935450732707979,
		-0.06577511131763458,
		-0.9956054091453552],
		"max":[0.08356262743473053,
		0.004446927458047867,
		0.059555765241384509,
		0.9951812624931336]
	}],
	"bufferViews":[{
		"buffer":0,
		"byteOffset":0,
		"byteLength":4816
	},
	{
		"buffer":0,
		"byteOffset":4816,
		"byteLength":6020
	},
	{
		"buffer":1,
		"byteOffset":0,
		"byteLength":6020
	},
	{
		"buffer":2,
		"byteOffset":0,
		"byteLength":6020
	},
	{
		"buffer":3,
		"byteOffset":0,
		"byteLength":6020
	},
	{
		"buffer":4,
		"byteOffset":0,
		"byteLength":6020
	},
	{
		"buffer":5,
		"byteOffset":0,
		"byteLength":6020
	},
	{
		"buffer":6,
		"byteOffset":0,
		"byteLength":6020
	},
	{
		"buffer":7,
		"byteOffset":0,
		"byteLength":6020
	},
	{
		"buffer":8,
		"byteOffset":0,
		"byteLength":6020
	},
	{
		"buffer":9,
		"byteOffset":0,
		"byteLength":6020
	},
	{
		"buffer":10,
		"byteOffset":0,
		"byteLength":6020
	},
	{
		"buffer":11,
		"byteOffset":0,
		"byteLength":6020
	}],
	"animations":[{
		"samplers":[{
			"input":0,
			"interpolation":"LINEAR",
			"output":1
		},
		{
			"input":2,
			"interpolation":"LINEAR",
			"output":3
		},
		{
			"input":4,
			"interpolation":"LINEAR",
			"output":5
		},
		{
			"input":6,
			"interpolation":"LINEAR",
			"output":7
		},
		{
			"input":8,
			"interpolation":"LINEAR",
			"output":9
		},
		{
			"input":10,
			"interpolation":"LINEAR",
			"output":11
		},
		{
			"input":12,
			"interpolation":"LINEAR",
			"output":13
		},
		{
			"input":14,
			"interpolation":"LINEAR",
			"output":15
		},
		{
			"input":16,
			"interpolation":"LINEAR",
			"output":17
		},
		{
			"input":18,
			"interpolation":"LINEAR",
			"output":19
		},
		{
			"input":20,
			"interpolation":"LINEAR",
			"output":21
		},
		{
			"input":22,
			"interpolation":"LINEAR",
			"output":23
		},
		{
			"input":24,
			"interpolation":"LINEAR",
			"output":25
		}],
		"channels":[{
			"sampler":0,
			"target":{
				"node":0,
				"path":"translation"
			}
		},
		{
			"sampler":1,
			"target":{
				"node":0,
				"path":"rotation"
			}
		},
		{
			"sampler":2,
			"target":{
				"node":1,
				"path":"rotation"
			}
		},
		{
			"sampler":3,
			"target":{
				"node":2,
				"path":"rotation"
			}
		},
		{
			"sampler":4,
			"target":{
				"node":3,
				"path":"rotation"
			}
		},
		{
			"sampler":5,
			"target":{
				"node":5,
				"path":"rotation"
			}
		},
		{
			"sampler":6,
			"target":{
				"node":6,
				"path":"rotation"
			}
		},
		{
			"sampler":7,
			"target":{
				"node":7,
				"path":"rotation"
			}
		},
		{
			"sampler":8,
			"target":{
				"node":9,
				"path":"rotation"
			}
		},
		{
			"sampler":9,
			"target":{
				"node":10,
				"path":"rotation"
			}
		},
		{
			"sampler":10,
			"target":{
				"node":11,
				"path":"rotation"
			}
		},
		{
			"sampler":11,
			"target":{
				"node":14,
				"path":"rotation"
			}
		},
		{
			"sampler":12,
			"target":{
				"node":15,
				"path":"rotation"
			}
		}]
	}]
}