{
	"asset":{
		"generator":"Created using the official Cinema 4D glTF Exporter 1.000x284978",
		"version":"2.0"
	},
	"scenes":[{
		"nodes":[0]
	}],
	"buffers":[{
		"uri":"data:application/octet-stream;base64,",
		"byteLength":288
	},
	{
		"uri":"data:application/octet-stream;base64,",
		"byteLength":160
	},
	{
		"uri":"data:application/octet-stream;base64,",
		"byteLength":160
	},
	{
		"uri":"data:application/octet-stream;base64,",
		"byteLength":160
	},
	{
		"uri":"data:application/octet-stream;base64,",
		"byteLength":160
	},
	{
		"uri":"data:application/octet-stream;base64,",
		"byteLength":160
	},
	{
		"uri":"data:application/octet-stream;base64,",
		"byteLength":160
	},
	{
		"uri":"data:application/octet-stream;base64,",
		"byteLength":160
	},
	{
		"uri":"data:application/octet-stream;base64,",
		"byteLength":160
	},
	{
		"uri":"data:application/octet-stream;base64,",
		"byteLength":160
	},
	{
		"uri":"data:application/octet-stream;base64,",
		"byteLength":160
	},
	{
		"uri":"data:application/octet-stream;base64,",
		"byteLength":160
	}],
	"nodes":[{
		"name":"Joint",
		"translation":[-62.55925369262695,
		631.6472778320313,
		-14.488215446472168],
		"children":[1,
		5,
		9],
		"rotation":[0.03650805726647377,
		0.33992958068847659,
		0.013092299923300743,
		-0.93965083360672],
		"scale":[1.0,
		1.0,
		1.0]
	},
	{
		"name":"Joint_2",
		"translation":[-80.59220123291016,
		-69.89759826660156,
		-0.23199999332427979],
		"children":[2],
		"rotation":[-0.08128158003091812,
		-0.11457916349172592,
		-0.17855992913246156,
		0.9738487005233765],
		"scale":[1.0,
		1.0,
		1.0]
	},
	{
		"name":"Joint_2_2",
		"translation":[23.357200622558595,
		-235.60350036621095,
		2.842170943040401e-14],
		"children":[3],
		"rotation":[0.2874704897403717,
		-0.060626961290836337,
		-0.028654368594288827,
		0.9554391503334045],
		"scale":[1.0,
		1.0,
		1.0]
	},
	{
		"name":"Joint_3",
		"translation":[17.164400100708009,
		-370.48040771484377,
		-64.94979858398438],
		"children":[4],
		"rotation":[0.1141999140381813,
		0.022933876141905786,
		-0.09995929896831513,
		-0.9881500601768494],
		"scale":[1.0,
		1.0,
		1.0]
	},
	{
		"name":"Joint_4",
		"translation":[-18.054399490356447,
		-14.973099708557129,
		118.7197036743164],
		"rotation":[0.0,
		0.0,
		0.0,
		-1.0],
		"scale":[1.0,
		1.0,
		1.0]
	},
	{
		"name":"Joint_1",
		"translation":[89.74030303955078,
		-69.89759826660156,
		-0.23199999332427979],
		"children":[6],
		"rotation":[-0.28938570618629458,
		0.08279543370008469,
		0.1461120843887329,
		0.9423651695251465],
		"scale":[1.0,
		1.0,
		1.0]
	},
	{
		"name":"Joint_2_3",
		"translation":[-26.86039924621582,
		-235.60350036621095,
		5.684341886080802e-14],
		"children":[7],
		"rotation":[0.2747272253036499,
		-0.13748227059841157,
		-0.03492679074406624,
		0.9510014057159424],
		"scale":[1.0,
		1.0,
		1.0]
	},
	{
		"name":"Joint_3_2",
		"translation":[-27.62420082092285,
		-367.0873107910156,
		-64.94979858398438],
		"children":[8],
		"rotation":[-0.035253703594207767,
		-0.001639157417230308,
		0.03820452466607094,
		-0.9986465573310852],
		"scale":[1.0,
		1.0,
		1.0]
	},
	{
		"name":"Joint_4_2",
		"translation":[21.715700149536134,
		-14.973099708557129,
		118.7197036743164],
		"rotation":[-2.0816681711721686e-17,
		-2.7755575615628916e-17,
		5.7777898331617079e-34,
		-1.0],
		"scale":[1.0,
		1.0,
		1.0]
	},
	{
		"name":"Joint_3_3",
		"translation":[7.105427357601002e-15,
		193.1331024169922,
		1.4210854715202005e-14],
		"children":[10,
		13,
		14],
		"rotation":[0.010172320529818535,
		0.061073046177625659,
		0.018510844558477403,
		0.9979097843170166],
		"scale":[1.0,
		1.0,
		1.0]
	},
	{
		"name":"Joint_3_4",
		"translation":[114.00740051269531,
		13.844499588012696,
		-7.105427357601002e-15],
		"children":[11],
		"rotation":[0.08275749534368515,
		0.1530061811208725,
		0.006079237442463636,
		0.9847351908683777],
		"scale":[1.0,
		1.0,
		1.0]
	},
	{
		"name":"Joint_4_3",
		"translation":[39.194000244140628,
		-138.8188934326172,
		-18.813400268554689],
		"children":[12],
		"rotation":[0.12942446768283845,
		0.08092710375785828,
		-0.06268953531980515,
		-0.9862911105155945],
		"scale":[1.0,
		1.0,
		1.0]
	},
	{
		"name":"Joint_4_4",
		"translation":[34.60940170288086,
		-190.69090270996095,
		85.5271987915039],
		"rotation":[0.0,
		-5.551115123125783e-17,
		0.0,
		-1.0],
		"scale":[1.0,
		1.0,
		1.0]
	},
	{
		"name":"Joint_4_5",
		"translation":[-7.105427357601002e-15,
		184.50819396972657,
		0.6406999826431274],
		"rotation":[0.0,
		0.0,
		0.0,
		-1.0],
		"scale":[1.0,
		1.0,
		1.0]
	},
	{
		"name":"Joint_2_4",
		"translation":[-104.50679779052735,
		13.844499588012696,
		2.842170943040401e-14],
		"children":[15],
		"rotation":[-0.23395796120166779,
		-0.03394250199198723,
		0.07110588997602463,
		-0.969048798084259],
		"scale":[1.0,
		1.0,
		1.0]
	},
	{
		"name":"Joint_4_6",
		"translation":[-55.05609893798828,
		-138.8188934326172,
		-18.813400268554689],
		"children":[16],
		"rotation":[-0.08174856752157211,
		-0.02078855223953724,
		-0.06554066389799118,
		0.9942783713340759],
		"scale":[1.0,
		1.0,
		1.0]
	},
	{
		"name":"Joint_4_7",
		"translation":[-20.35849952697754,
		-171.35040283203126,
		85.5271987915039],
		"rotation":[0.0,
		0.0,
		0.0,
		-1.0],
		"scale":[1.0,
		1.0,
		1.0]
	}],
	"accessors":[{
		"bufferView":0,
		"type":"SCALAR",
		"componentType":5126,
		"count":8,
		"byteOffset":0,
		"min":[0.0],
		"max":[0.23333333432674409]
	},
	{
		"bufferView":0,
		"type":"VEC3",
		"componentType":5126,
		"count":8,
		"byteOffset":32,
		"min":[-62.55925369262695,
		631.5078125,
		-38.75494384765625],
		"max":[-35.26709747314453,
		660.23583984375,
		-14.488215446472168]
	},
	{
		"bufferView":1,
		"type":"SCALAR",
		"componentType":5126,
		"count":8,
		"byteOffset":0,
		"min":[0.0],
		"max":[0.23333333432674409]
	},
	{
		"bufferView":1,
		"type":"VEC4",
		"componentType":5126,
		"count":8,
		"byteOffset":32,
		"min":[0.03496591001749039,
		0.30436286330223086,
		-0.09626436233520508,
		-0.9440785050392151],
		"max":[0.18073923885822297,
		0.33992958068847659,
		0.013092299923300743,
		-0.9339721202850342]
	},
	{
		"bufferView":2,
		"type":"SCALAR",
		"componentType":5126,
		"count":8,
		"byteOffset":0,
		"min":[0.0],
		"max":[0.23333333432674409]
	},
	{
		"bufferView":2,
		"type":"VEC4",
		"componentType":5126,
		"count":8,
		"byteOffset":32,
		"min":[-0.4072110652923584,
		-0.18017929792404176,
		-0.3234750032424927,
		-0.7772765755653381],
		"max":[0.7379423975944519,
		0.2029423862695694,
		0.32337284088134768,
		0.9738487005233765]
	},
	{
		"bufferView":3,
		"type":"SCALAR",
		"componentType":5126,
		"count":8,
		"byteOffset":0,
		"min":[0.0],
		"max":[0.23333333432674409]
	},
	{
		"bufferView":3,
		"type":"VEC4",
		"componentType":5126,
		"count":8,
		"byteOffset":32,
		"min":[0.2874704897403717,
		-0.060626961290836337,
		-0.028654368594288827,
		0.32860440015792849],
		"max":[0.938498854637146,
		0.08304121345281601,
		0.18858850002288819,
		0.9554391503334045]
	},
	{
		"bufferView":4,
		"type":"SCALAR",
		"componentType":5126,
		"count":8,
		"byteOffset":0,
		"min":[0.0],
		"max":[0.23333333432674409]
	},
	{
		"bufferView":4,
		"type":"VEC4",
		"componentType":5126,
		"count":8,
		"byteOffset":32,
		"min":[-0.016344832256436349,
		-0.0012375731021165848,
		-0.09995929896831513,
		-0.9992626309394836],
		"max":[0.3856317698955536,
		0.03581232205033302,
		0.11545483022928238,
		0.9927815198898315]
	},
	{
		"bufferView":5,
		"type":"SCALAR",
		"componentType":5126,
		"count":8,
		"byteOffset":0,
		"min":[0.0],
		"max":[0.23333333432674409]
	},
	{
		"bufferView":5,
		"type":"VEC4",
		"componentType":5126,
		"count":8,
		"byteOffset":32,
		"min":[-0.45824170112609866,
		-0.17694030702114106,
		-0.1472240835428238,
		-0.8280926942825317],
		"max":[0.7091996669769287,
		0.08279543370008469,
		0.1461120843887329,
		0.9423651695251465]
	},
	{
		"bufferView":6,
		"type":"SCALAR",
		"componentType":5126,
		"count":8,
		"byteOffset":0,
		"min":[0.0],
		"max":[0.23333333432674409]
	},
	{
		"bufferView":6,
		"type":"VEC4",
		"componentType":5126,
		"count":8,
		"byteOffset":32,
		"min":[0.2747272253036499,
		-0.13748227059841157,
		-0.06676048785448075,
		0.472149133682251],
		"max":[0.8783574104309082,
		-0.054645515978336337,
		0.03332626447081566,
		0.9510014057159424]
	},
	{
		"bufferView":7,
		"type":"SCALAR",
		"componentType":5126,
		"count":8,
		"byteOffset":0,
		"min":[0.0],
		"max":[0.23333333432674409]
	},
	{
		"bufferView":7,
		"type":"VEC4",
		"componentType":5126,
		"count":8,
		"byteOffset":32,
		"min":[-0.035253703594207767,
		-0.020564675331115724,
		-0.08538292348384857,
		-0.9986465573310852],
		"max":[0.2076142132282257,
		-0.001639157417230308,
		0.03820452466607094,
		0.9960094690322876]
	},
	{
		"bufferView":8,
		"type":"SCALAR",
		"componentType":5126,
		"count":8,
		"byteOffset":0,
		"min":[0.0],
		"max":[0.23333333432674409]
	},
	{
		"bufferView":8,
		"type":"VEC4",
		"componentType":5126,
		"count":8,
		"byteOffset":32,
		"min":[-0.14134088158607484,
		-0.05345708876848221,
		-0.109517402946949,
		-0.9971275925636292],
		"max":[0.32097017765045168,
		0.061073046177625659,
		0.06998346745967865,
		0.9979097843170166]
	},
	{
		"bufferView":9,
		"type":"SCALAR",
		"componentType":5126,
		"count":8,
		"byteOffset":0,
		"min":[0.0],
		"max":[0.23333333432674409]
	},
	{
		"bufferView":9,
		"type":"VEC4",
		"componentType":5126,
		"count":8,
		"byteOffset":32,
		"min":[0.06557261943817139,
		0.009327217005193234,
		0.006079237442463636,
		0.6717084646224976],
		"max":[0.29814639687538149,
		0.28843942284584048,
		0.6660281419754028,
		0.9847351908683777]
	},
	{
		"bufferView":10,
		"type":"SCALAR",
		"componentType":5126,
		"count":8,
		"byteOffset":0,
		"min":[0.0],
		"max":[0.23333333432674409]
	},
	{
		"bufferView":10,
		"type":"VEC4",
		"componentType":5126,
		"count":8,
		"byteOffset":32,
		"min":[-0.08608175069093704,
		-0.10472710430622101,
		-0.06268953531980515,
		-0.993318498134613],
		"max":[0.26774677634239199,
		0.08092710375785828,
		0.08858008682727814,
		-0.9629725217819214]
	},
	{
		"bufferView":11,
		"type":"SCALAR",
		"componentType":5126,
		"count":8,
		"byteOffset":0,
		"min":[0.0],
		"max":[0.23333333432674409]
	},
	{
		"bufferView":11,
		"type":"VEC4",
		"componentType":5126,
		"count":8,
		"byteOffset":32,
		"min":[-0.23395796120166779,
		-0.12939822673797608,
		-0.6886425614356995,
		-0.969048798084259],
		"max":[0.1885499656200409,
		-0.03394250199198723,
		0.07110588997602463,
		0.9374803304672241]
	},
	{
		"bufferView":12,
		"type":"SCALAR",
		"componentType":5126,
		"count":8,
		"byteOffset":0,
		"min":[0.0],
		"max":[0.23333333432674409]
	},
	{
		"bufferView":12,
		"type":"VEC4",
		"componentType":5126,
		"count":8,
		"byteOffset":32,
		"min":[-0.09567055106163025,
		-0.2676568627357483,
		-0.09415625780820847,
		0.9558494091033936],
		"max":[0.03619082272052765,
		-0.02078855223953724,
		-0.06554066389799118,
		0.9942783713340759]
	}],
	"bufferViews":[{
		"buffer":0,
		"byteOffset":0,
		"byteLength":128
	},
	{
		"buffer":0,
		"byteOffset":128,
		"byteLength":160
	},
	{
		"buffer":1,
		"byteOffset":0,
		"byteLength":160
	},
	{
		"buffer":2,
		"byteOffset":0,
		"byteLength":160
	},
	{
		"buffer":3,
		"byteOffset":0,
		"byteLength":160
	},
	{
		"buffer":4,
		"byteOffset":0,
		"byteLength":160
	},
	{
		"buffer":5,
		"byteOffset":0,
		"byteLength":160
	},
	{
		"buffer":6,
		"byteOffset":0,
		"byteLength":160
	},
	{
		"buffer":7,
		"byteOffset":0,
		"byteLength":160
	},
	{
		"buffer":8,
		"byteOffset":0,
		"byteLength":160
	},
	{
		"buffer":9,
		"byteOffset":0,
		"byteLength":160
	},
	{
		"buffer":10,
		"byteOffset":0,
		"byteLength":160
	},
	{
		"buffer":11,
		"byteOffset":0,
		"byteLength":160
	}],
	"animations":[{
		"samplers":[{
			"input":0,
			"interpolation":"LINEAR",
			"output":1
		},
		{
			"input":2,
			"interpolation":"LINEAR",
			"output":3
		},
		{
			"input":4,
			"interpolation":"LINEAR",
			"output":5
		},
		{
			"input":6,
			"interpolation":"LINEAR",
			"output":7
		},
		{
			"input":8,
			"interpolation":"LINEAR",
			"output":9
		},
		{
			"input":10,
			"interpolation":"LINEAR",
			"output":11
		},
		{
			"input":12,
			"interpolation":"LINEAR",
			"output":13
		},
		{
			"input":14,
			"interpolation":"LINEAR",
			"output":15
		},
		{
			"input":16,
			"interpolation":"LINEAR",
			"output":17
		},
		{
			"input":18,
			"interpolation":"LINEAR",
			"output":19
		},
		{
			"input":20,
			"interpolation":"LINEAR",
			"output":21
		},
		{
			"input":22,
			"interpolation":"LINEAR",
			"output":23
		},
		{
			"input":24,
			"interpolation":"LINEAR",
			"output":25
		}],
		"channels":[{
			"sampler":0,
			"target":{
				"node":0,
				"path":"translation"
			}
		},
		{
			"sampler":1,
			"target":{
				"node":0,
				"path":"rotation"
			}
		},
		{
			"sampler":2,
			"target":{
				"node":1,
				"path":"rotation"
			}
		},
		{
			"sampler":3,
			"target":{
				"node":2,
				"path":"rotation"
			}
		},
		{
			"sampler":4,
			"target":{
				"node":3,
				"path":"rotation"
			}
		},
		{
			"sampler":5,
			"target":{
				"node":5,
				"path":"rotation"
			}
		},
		{
			"sampler":6,
			"target":{
				"node":6,
				"path":"rotation"
			}
		},
		{
			"sampler":7,
			"target":{
				"node":7,
				"path":"rotation"
			}
		},
		{
			"sampler":8,
			"target":{
				"node":9,
				"path":"rotation"
			}
		},
		{
			"sampler":9,
			"target":{
				"node":10,
				"path":"rotation"
			}
		},
		{
			"sampler":10,
			"target":{
				"node":11,
				"path":"rotation"
			}
		},
		{
			"sampler":11,
			"target":{
				"node":14,
				"path":"rotation"
			}
		},
		{
			"sampler":12,
			"target":{
				"node":15,
				"path":"rotation"
			}
		}]
	}]
}