{
	"asset":{
		"generator":"Created using the official Cinema 4D glTF Exporter 1.000x284978",
		"version":"2.0"
	},
	"scenes":[{
		"nodes":[0]
	}],
	"buffers":[{
		"uri":"data:application/octet-stream;base64,",
		"byteLength":864
	},
	{
		"uri":"data:application/octet-stream;base64,",
		"byteLength":480
	},
	{
		"uri":"data:application/octet-stream;base64,",
		"byteLength":480
	},
	{
		"uri":"data:application/octet-stream;base64,",
		"byteLength":480
	},
	{
		"uri":"data:application/octet-stream;base64,",
		"byteLength":480
	},
	{
		"uri":"data:application/octet-stream;base64,",
		"byteLength":480
	},
	{
		"uri":"data:application/octet-stream;base64,",
		"byteLength":480
	},
	{
		"uri":"data:application/octet-stream;base64,",
		"byteLength":480
	},
	{
		"uri":"data:application/octet-stream;base64,",
		"byteLength":480
	},
	{
		"uri":"data:application/octet-stream;base64,",
		"byteLength":480
	},
	{
		"uri":"data:application/octet-stream;base64,",
		"byteLength":480
	},
	{
		"uri":"data:application/octet-stream;base64,",
		"byteLength":480
	}],
	"nodes":[{
		"name":"Joint",
		"translation":[-9.243831634521485,
		670.0784912109375,
		-23.899574279785158],
		"children":[1,
		5,
		9],
		"rotation":[-0.08033808320760727,
		0.05330566316843033,
		-0.035123083740472797,
		-0.9947214126586914],
		"scale":[1.0,
		1.0,
		1.0]
	},
	{
		"name":"Joint_2",
		"translation":[-80.59220123291016,
		-69.89759826660156,
		-0.23199999332427979],
		"children":[2],
		"rotation":[0.06106799095869064,
		-0.017836442217230798,
		0.03847914934158325,
		-0.9972321391105652],
		"scale":[1.0,
		1.0,
		1.0]
	},
	{
		"name":"Joint_2_2",
		"translation":[23.357200622558595,
		-235.60350036621095,
		1.4210854715202005e-14],
		"children":[3],
		"rotation":[-0.19934535026550294,
		-0.0433284156024456,
		0.011147099547088147,
		-0.9789074659347534],
		"scale":[1.0,
		1.0,
		1.0]
	},
	{
		"name":"Joint_3",
		"translation":[17.164400100708009,
		-370.48040771484377,
		-64.94979858398438],
		"children":[4],
		"rotation":[0.0497075654566288,
		-0.03105204738676548,
		0.09493900090456009,
		-0.9937562942504883],
		"scale":[1.0,
		1.0,
		1.0]
	},
	{
		"name":"Joint_4",
		"translation":[-18.054399490356447,
		-14.973099708557129,
		118.7197036743164],
		"rotation":[-1.3877787807814457e-16,
		0.0,
		0.0,
		-1.0],
		"scale":[1.0,
		1.0,
		1.0]
	},
	{
		"name":"Joint_1",
		"translation":[89.74030303955078,
		-69.89759826660156,
		-0.23199999332427979],
		"children":[6],
		"rotation":[0.6141754388809204,
		-0.08998233079910279,
		-0.15145355463027955,
		-0.7692551612854004],
		"scale":[1.0,
		1.0,
		1.0]
	},
	{
		"name":"Joint_2_3",
		"translation":[-26.86039924621582,
		-235.60350036621095,
		1.1368683772161604e-13],
		"children":[7],
		"rotation":[0.8876540660858154,
		-0.055967964231967929,
		-0.0059158531948924068,
		0.457058846950531],
		"scale":[1.0,
		1.0,
		1.0]
	},
	{
		"name":"Joint_3_2",
		"translation":[-27.62420082092285,
		-367.0873107910156,
		-64.94979858398438],
		"children":[8],
		"rotation":[0.37129873037338259,
		-0.07983408123254776,
		0.009874027222394944,
		0.925022304058075],
		"scale":[1.0,
		1.0,
		1.0]
	},
	{
		"name":"Joint_4_2",
		"translation":[21.715700149536134,
		-14.973099708557129,
		118.7197036743164],
		"rotation":[0.0,
		0.0,
		0.0,
		-1.0],
		"scale":[1.0,
		1.0,
		1.0]
	},
	{
		"name":"Joint_3_3",
		"translation":[-1.0658141036401503e-14,
		193.1331024169922,
		2.842170943040401e-14],
		"children":[10,
		13,
		14],
		"rotation":[-0.12867045402526856,
		-0.10471692681312561,
		0.05196131393313408,
		-0.9847732186317444],
		"scale":[1.0,
		1.0,
		1.0]
	},
	{
		"name":"Joint_3_4",
		"translation":[114.00740051269531,
		13.844499588012696,
		-5.684341886080802e-14],
		"children":[11],
		"rotation":[-0.316295862197876,
		0.08113723993301392,
		-0.10258135199546814,
		-0.9396013617515564],
		"scale":[1.0,
		1.0,
		1.0]
	},
	{
		"name":"Joint_4_3",
		"translation":[39.194000244140628,
		-138.8188934326172,
		-18.813400268554689],
		"children":[12],
		"rotation":[0.3443593978881836,
		0.0747913047671318,
		-0.03769880160689354,
		-0.9350944757461548],
		"scale":[1.0,
		1.0,
		1.0]
	},
	{
		"name":"Joint_4_4",
		"translation":[34.60940170288086,
		-190.69090270996095,
		85.5271987915039],
		"rotation":[0.0,
		0.0,
		0.0,
		-1.0],
		"scale":[1.0,
		1.0,
		1.0]
	},
	{
		"name":"Joint_4_5",
		"translation":[-2.6645352591003758e-15,
		184.50819396972657,
		0.6406999826431274],
		"rotation":[0.0,
		0.0,
		0.0,
		-1.0],
		"scale":[1.0,
		1.0,
		1.0]
	},
	{
		"name":"Joint_2_4",
		"translation":[-104.50679779052735,
		13.844499588012696,
		0.0],
		"children":[15],
		"rotation":[0.30224257707595827,
		-0.1269180327653885,
		0.08327634632587433,
		-0.941066563129425],
		"scale":[1.0,
		1.0,
		1.0]
	},
	{
		"name":"Joint_4_6",
		"translation":[-55.05609893798828,
		-138.8188934326172,
		-18.813400268554689],
		"children":[16],
		"rotation":[0.4338369369506836,
		-0.09667936712503433,
		0.09202626347541809,
		-0.8910498023033142],
		"scale":[1.0,
		1.0,
		1.0]
	},
	{
		"name":"Joint_4_7",
		"translation":[-20.35849952697754,
		-171.35040283203126,
		85.5271987915039],
		"rotation":[-1.3877787807814458e-17,
		-2.0816681711721686e-17,
		2.8888949165808539e-34,
		-1.0],
		"scale":[1.0,
		1.0,
		1.0]
	}],
	"accessors":[{
		"bufferView":0,
		"type":"SCALAR",
		"componentType":5126,
		"count":24,
		"byteOffset":0,
		"min":[0.0],
		"max":[0.7666666507720947]
	},
	{
		"bufferView":0,
		"type":"VEC3",
		"componentType":5126,
		"count":24,
		"byteOffset":96,
		"min":[-10.664022445678711,
		630.3929443359375,
		-44.0389518737793],
		"max":[-1.2542786598205567,
		684.1736450195313,
		-6.237525939941406]
	},
	{
		"bufferView":1,
		"type":"SCALAR",
		"componentType":5126,
		"count":24,
		"byteOffset":0,
		"min":[0.0],
		"max":[0.7666666507720947]
	},
	{
		"bufferView":1,
		"type":"VEC4",
		"componentType":5126,
		"count":24,
		"byteOffset":96,
		"min":[-0.12103138864040375,
		-0.07659966498613358,
		-0.035123083740472797,
		-0.9987500905990601],
		"max":[0.12915800511837007,
		0.07488042861223221,
		0.036093104630708697,
		0.9983506202697754]
	},
	{
		"bufferView":2,
		"type":"SCALAR",
		"componentType":5126,
		"count":24,
		"byteOffset":0,
		"min":[0.0],
		"max":[0.7666666507720947]
	},
	{
		"bufferView":2,
		"type":"VEC4",
		"componentType":5126,
		"count":24,
		"byteOffset":96,
		"min":[0.012520266696810723,
		-0.08559714257717133,
		-0.04303034394979477,
		-0.9972325563430786],
		"max":[0.7365173697471619,
		0.04142449423670769,
		0.15748284757137299,
		0.9959471225738525]
	},
	{
		"bufferView":3,
		"type":"SCALAR",
		"componentType":5126,
		"count":24,
		"byteOffset":0,
		"min":[0.0],
		"max":[0.7666666507720947]
	},
	{
		"bufferView":3,
		"type":"VEC4",
		"componentType":5126,
		"count":24,
		"byteOffset":96,
		"min":[-0.31293317675590517,
		-0.10544463247060776,
		-0.02891082502901554,
		-0.9971279501914978],
		"max":[0.9536874294281006,
		0.11769004911184311,
		0.048618149012327197,
		0.9469975829124451]
	},
	{
		"bufferView":4,
		"type":"SCALAR",
		"componentType":5126,
		"count":24,
		"byteOffset":0,
		"min":[0.0],
		"max":[0.7666666507720947]
	},
	{
		"bufferView":4,
		"type":"VEC4",
		"componentType":5126,
		"count":24,
		"byteOffset":96,
		"min":[-0.3630792498588562,
		-0.047366995364427569,
		-0.13406655192375184,
		-0.9937562942504883],
		"max":[0.37292400002479555,
		0.0387856625020504,
		0.1052069291472435,
		0.9963048696517944]
	},
	{
		"bufferView":5,
		"type":"SCALAR",
		"componentType":5126,
		"count":24,
		"byteOffset":0,
		"min":[0.0],
		"max":[0.7666666507720947]
	},
	{
		"bufferView":5,
		"type":"VEC4",
		"componentType":5126,
		"count":24,
		"byteOffset":96,
		"min":[-0.5029730796813965,
		-0.08998234570026398,
		-0.17248639464378358,
		-0.9952793121337891],
		"max":[0.6646572351455689,
		0.11327052116394043,
		0.15627820789813996,
		0.9921979904174805]
	},
	{
		"bufferView":6,
		"type":"SCALAR",
		"componentType":5126,
		"count":24,
		"byteOffset":0,
		"min":[0.0],
		"max":[0.7666666507720947]
	},
	{
		"bufferView":6,
		"type":"VEC4",
		"componentType":5126,
		"count":24,
		"byteOffset":96,
		"min":[-0.47069263458251955,
		-0.11143697053194046,
		-0.08962029963731766,
		-0.997361421585083],
		"max":[0.9359114766120911,
		0.0009479739237576723,
		0.0490458719432354,
		0.9911033511161804]
	},
	{
		"bufferView":7,
		"type":"SCALAR",
		"componentType":5126,
		"count":24,
		"byteOffset":0,
		"min":[0.0],
		"max":[0.7666666507720947]
	},
	{
		"bufferView":7,
		"type":"VEC4",
		"componentType":5126,
		"count":24,
		"byteOffset":96,
		"min":[-0.3732012212276459,
		-0.11097002029418946,
		-0.06803156435489655,
		-0.9859853982925415],
		"max":[0.37129873037338259,
		0.1174660474061966,
		0.10622332245111466,
		0.9981436729431152]
	},
	{
		"bufferView":8,
		"type":"SCALAR",
		"componentType":5126,
		"count":24,
		"byteOffset":0,
		"min":[0.0],
		"max":[0.7666666507720947]
	},
	{
		"bufferView":8,
		"type":"VEC4",
		"componentType":5126,
		"count":24,
		"byteOffset":96,
		"min":[-0.15218216180801392,
		-0.20208244025707246,
		-0.06598657369613648,
		-0.9919050335884094],
		"max":[0.1575821191072464,
		0.19668424129486085,
		0.060672979801893237,
		0.9964513778686523]
	},
	{
		"bufferView":9,
		"type":"SCALAR",
		"componentType":5126,
		"count":24,
		"byteOffset":0,
		"min":[0.0],
		"max":[0.7666666507720947]
	},
	{
		"bufferView":9,
		"type":"VEC4",
		"componentType":5126,
		"count":24,
		"byteOffset":96,
		"min":[-0.4358338713645935,
		-0.06312523037195206,
		-0.5150507092475891,
		-0.9837105870246887],
		"max":[0.45724913477897646,
		0.3146193027496338,
		0.010538686066865921,
		0.9569985270500183]
	},
	{
		"bufferView":10,
		"type":"SCALAR",
		"componentType":5126,
		"count":24,
		"byteOffset":0,
		"min":[0.0],
		"max":[0.7666666507720947]
	},
	{
		"bufferView":10,
		"type":"VEC4",
		"componentType":5126,
		"count":24,
		"byteOffset":96,
		"min":[0.17685936391353608,
		0.03513653948903084,
		-0.041497547179460528,
		-0.9827330112457275],
		"max":[0.3884970545768738,
		0.08527816832065582,
		-0.03644360601902008,
		-0.9167712330818176]
	},
	{
		"bufferView":11,
		"type":"SCALAR",
		"componentType":5126,
		"count":24,
		"byteOffset":0,
		"min":[0.0],
		"max":[0.7666666507720947]
	},
	{
		"bufferView":11,
		"type":"VEC4",
		"componentType":5126,
		"count":24,
		"byteOffset":96,
		"min":[-0.522770345211029,
		-0.2577086389064789,
		-0.06346224248409271,
		-0.9964439868927002],
		"max":[0.6034703254699707,
		0.09866107255220413,
		0.42796146869659426,
		0.9987495541572571]
	},
	{
		"bufferView":12,
		"type":"SCALAR",
		"componentType":5126,
		"count":24,
		"byteOffset":0,
		"min":[0.0],
		"max":[0.7666666507720947]
	},
	{
		"bufferView":12,
		"type":"VEC4",
		"componentType":5126,
		"count":24,
		"byteOffset":96,
		"min":[0.24111466109752656,
		-0.09667936712503433,
		0.09202626347541809,
		-0.9636510014533997],
		"max":[0.4338369369506836,
		-0.04401588439941406,
		0.1063159927725792,
		-0.8910498023033142]
	}],
	"bufferViews":[{
		"buffer":0,
		"byteOffset":0,
		"byteLength":384
	},
	{
		"buffer":0,
		"byteOffset":384,
		"byteLength":480
	},
	{
		"buffer":1,
		"byteOffset":0,
		"byteLength":480
	},
	{
		"buffer":2,
		"byteOffset":0,
		"byteLength":480
	},
	{
		"buffer":3,
		"byteOffset":0,
		"byteLength":480
	},
	{
		"buffer":4,
		"byteOffset":0,
		"byteLength":480
	},
	{
		"buffer":5,
		"byteOffset":0,
		"byteLength":480
	},
	{
		"buffer":6,
		"byteOffset":0,
		"byteLength":480
	},
	{
		"buffer":7,
		"byteOffset":0,
		"byteLength":480
	},
	{
		"buffer":8,
		"byteOffset":0,
		"byteLength":480
	},
	{
		"buffer":9,
		"byteOffset":0,
		"byteLength":480
	},
	{
		"buffer":10,
		"byteOffset":0,
		"byteLength":480
	},
	{
		"buffer":11,
		"byteOffset":0,
		"byteLength":480
	}],
	"animations":[{
		"samplers":[{
			"input":0,
			"interpolation":"LINEAR",
			"output":1
		},
		{
			"input":2,
			"interpolation":"LINEAR",
			"output":3
		},
		{
			"input":4,
			"interpolation":"LINEAR",
			"output":5
		},
		{
			"input":6,
			"interpolation":"LINEAR",
			"output":7
		},
		{
			"input":8,
			"interpolation":"LINEAR",
			"output":9
		},
		{
			"input":10,
			"interpolation":"LINEAR",
			"output":11
		},
		{
			"input":12,
			"interpolation":"LINEAR",
			"output":13
		},
		{
			"input":14,
			"interpolation":"LINEAR",
			"output":15
		},
		{
			"input":16,
			"interpolation":"LINEAR",
			"output":17
		},
		{
			"input":18,
			"interpolation":"LINEAR",
			"output":19
		},
		{
			"input":20,
			"interpolation":"LINEAR",
			"output":21
		},
		{
			"input":22,
			"interpolation":"LINEAR",
			"output":23
		},
		{
			"input":24,
			"interpolation":"LINEAR",
			"output":25
		}],
		"channels":[{
			"sampler":0,
			"target":{
				"node":0,
				"path":"translation"
			}
		},
		{
			"sampler":1,
			"target":{
				"node":0,
				"path":"rotation"
			}
		},
		{
			"sampler":2,
			"target":{
				"node":1,
				"path":"rotation"
			}
		},
		{
			"sampler":3,
			"target":{
				"node":2,
				"path":"rotation"
			}
		},
		{
			"sampler":4,
			"target":{
				"node":3,
				"path":"rotation"
			}
		},
		{
			"sampler":5,
			"target":{
				"node":5,
				"path":"rotation"
			}
		},
		{
			"sampler":6,
			"target":{
				"node":6,
				"path":"rotation"
			}
		},
		{
			"sampler":7,
			"target":{
				"node":7,
				"path":"rotation"
			}
		},
		{
			"sampler":8,
			"target":{
				"node":9,
				"path":"rotation"
			}
		},
		{
			"sampler":9,
			"target":{
				"node":10,
				"path":"rotation"
			}
		},
		{
			"sampler":10,
			"target":{
				"node":11,
				"path":"rotation"
			}
		},
		{
			"sampler":11,
			"target":{
				"node":14,
				"path":"rotation"
			}
		},
		{
			"sampler":12,
			"target":{
				"node":15,
				"path":"rotation"
			}
		}]
	}]
}