{
	"asset":{
		"generator":"Created using the official Cinema 4D glTF Exporter 1.000x284978",
		"version":"2.0"
	},
	"scenes":[{
		"nodes":[0]
	}],
	"buffers":[{
		"uri":"data:application/octet-stream;base64,",
		"byteLength":1152
	},
	{
		"uri":"data:application/octet-stream;base64,",
		"byteLength":640
	},
	{
		"uri":"data:application/octet-stream;base64,",
		"byteLength":640
	},
	{
		"uri":"data:application/octet-stream;base64,",
		"byteLength":640
	},
	{
		"uri":"data:application/octet-stream;base64,",
		"byteLength":640
	},
	{
		"uri":"data:application/octet-stream;base64,",
		"byteLength":640
	},
	{
		"uri":"data:application/octet-stream;base64,",
		"byteLength":640
	},
	{
		"uri":"data:application/octet-stream;base64,",
		"byteLength":640
	},
	{
		"uri":"data:application/octet-stream;base64,",
		"byteLength":640
	},
	{
		"uri":"data:application/octet-stream;base64,",
		"byteLength":640
	},
	{
		"uri":"data:application/octet-stream;base64,",
		"byteLength":640
	},
	{
		"uri":"data:application/octet-stream;base64,",
		"byteLength":640
	}],
	"nodes":[{
		"name":"Joint",
		"translation":[-4.067600250244141,
		679.675537109375,
		-1.976823329925537],
		"children":[1,
		5,
		9],
		"rotation":[0.01695193722844124,
		0.016998527571558954,
		0.0018407970201224089,
		0.9997100830078125],
		"scale":[1.0,
		1.0,
		1.0]
	},
	{
		"name":"Joint_2",
		"translation":[-80.59220123291016,
		-69.89759826660156,
		-0.23199999332427979],
		"children":[2],
		"rotation":[0.16452279686927796,
		0.06766978651285172,
		0.009610570035874844,
		-0.9840023517608643],
		"scale":[1.0,
		1.0,
		1.0]
	},
	{
		"name":"Joint_2_2",
		"translation":[23.357200622558595,
		-235.60350036621095,
		2.842170943040401e-14],
		"children":[3],
		"rotation":[-0.15696315467357636,
		-0.042391616851091388,
		0.029759109020233156,
		-0.986245334148407],
		"scale":[1.0,
		1.0,
		1.0]
	},
	{
		"name":"Joint_3",
		"translation":[17.164400100708009,
		-370.48040771484377,
		-64.94979858398438],
		"children":[4],
		"rotation":[-0.018956787884235383,
		-0.002882077358663082,
		-0.05336181819438934,
		0.9983911514282227],
		"scale":[1.0,
		1.0,
		1.0]
	},
	{
		"name":"Joint_4",
		"translation":[-18.054399490356447,
		-14.973099708557129,
		118.7197036743164],
		"rotation":[0.0,
		0.0,
		0.0,
		-1.0],
		"scale":[1.0,
		1.0,
		1.0]
	},
	{
		"name":"Joint_1",
		"translation":[89.74030303955078,
		-69.89759826660156,
		-0.23199999332427979],
		"children":[6],
		"rotation":[-0.3082870543003082,
		0.10293444246053696,
		0.06191385164856911,
		0.9436790943145752],
		"scale":[1.0,
		1.0,
		1.0]
	},
	{
		"name":"Joint_2_3",
		"translation":[-26.86039924621582,
		-235.60350036621095,
		5.684341886080802e-14],
		"children":[7],
		"rotation":[0.47394776344299319,
		-0.07460123300552368,
		-0.022059055045247079,
		0.8771097660064697],
		"scale":[1.0,
		1.0,
		1.0]
	},
	{
		"name":"Joint_3_2",
		"translation":[-27.62420082092285,
		-367.0873107910156,
		-64.94979858398438],
		"children":[8],
		"rotation":[-0.07274413108825684,
		0.007972863502800465,
		-0.028120247647166253,
		-0.9969222545623779],
		"scale":[1.0,
		1.0,
		1.0]
	},
	{
		"name":"Joint_4_2",
		"translation":[21.715700149536134,
		-14.973099708557129,
		118.7197036743164],
		"rotation":[0.0,
		0.0,
		0.0,
		-1.0],
		"scale":[1.0,
		1.0,
		1.0]
	},
	{
		"name":"Joint_3_3",
		"translation":[-2.220446049250313e-16,
		193.1331024169922,
		-7.105427357601002e-15],
		"children":[10,
		13,
		14],
		"rotation":[0.053818076848983768,
		-0.011457260698080063,
		-0.003142703091725707,
		0.9984800815582275],
		"scale":[1.0,
		1.0,
		1.0]
	},
	{
		"name":"Joint_3_4",
		"translation":[114.00740051269531,
		13.844499588012696,
		-1.4210854715202005e-14],
		"children":[11],
		"rotation":[0.008334879763424397,
		-0.35545113682746889,
		-0.01052846759557724,
		0.9345983862876892],
		"scale":[1.0,
		1.0,
		1.0]
	},
	{
		"name":"Joint_4_3",
		"translation":[39.194000244140628,
		-138.8188934326172,
		-18.813400268554689],
		"children":[12],
		"rotation":[0.16915878653526307,
		0.046144671738147739,
		0.045042768120765689,
		0.9834770560264587],
		"scale":[1.0,
		1.0,
		1.0]
	},
	{
		"name":"Joint_4_4",
		"translation":[34.60940170288086,
		-190.69090270996095,
		85.5271987915039],
		"rotation":[-2.7755575615628916e-17,
		-5.551115123125783e-17,
		1.5407439555097888e-33,
		-1.0],
		"scale":[1.0,
		1.0,
		1.0]
	},
	{
		"name":"Joint_4_5",
		"translation":[0.0,
		184.50819396972657,
		0.6406999826431274],
		"rotation":[0.0,
		-8.673617379884036e-19,
		0.0,
		-1.0],
		"scale":[1.0,
		1.0,
		1.0]
	},
	{
		"name":"Joint_2_4",
		"translation":[-104.50679779052735,
		13.844499588012696,
		-1.4210854715202005e-14],
		"children":[15],
		"rotation":[-0.07070422172546387,
		0.2517206072807312,
		0.025683769956231118,
		0.9648720026016235],
		"scale":[1.0,
		1.0,
		1.0]
	},
	{
		"name":"Joint_4_6",
		"translation":[-55.05609893798828,
		-138.8188934326172,
		-18.813400268554689],
		"children":[16],
		"rotation":[0.08231586217880249,
		-0.0423550084233284,
		-0.11888404935598374,
		0.9885832071304321],
		"scale":[1.0,
		1.0,
		1.0]
	},
	{
		"name":"Joint_4_7",
		"translation":[-20.35849952697754,
		-171.35040283203126,
		85.5271987915039],
		"rotation":[0.0,
		0.0,
		0.0,
		-1.0],
		"scale":[1.0,
		1.0,
		1.0]
	}],
	"accessors":[{
		"bufferView":0,
		"type":"SCALAR",
		"componentType":5126,
		"count":32,
		"byteOffset":0,
		"min":[0.0],
		"max":[1.0333333015441895]
	},
	{
		"bufferView":0,
		"type":"VEC3",
		"componentType":5126,
		"count":32,
		"byteOffset":128,
		"min":[-11.482959747314454,
		615.393310546875,
		-1.976823329925537],
		"max":[30.90411376953125,
		684.018798828125,
		21.07491683959961]
	},
	{
		"bufferView":1,
		"type":"SCALAR",
		"componentType":5126,
		"count":32,
		"byteOffset":0,
		"min":[0.0],
		"max":[1.0333333015441895]
	},
	{
		"bufferView":1,
		"type":"VEC4",
		"componentType":5126,
		"count":32,
		"byteOffset":128,
		"min":[-0.02776404097676277,
		-0.03384837135672569,
		-0.029576610773801805,
		-0.9999487996101379],
		"max":[0.03542320430278778,
		0.06520270556211472,
		0.030692603439092637,
		0.999954104423523]
	},
	{
		"bufferView":2,
		"type":"SCALAR",
		"componentType":5126,
		"count":32,
		"byteOffset":0,
		"min":[0.0],
		"max":[1.0333333015441895]
	},
	{
		"bufferView":2,
		"type":"VEC4",
		"componentType":5126,
		"count":32,
		"byteOffset":128,
		"min":[-0.4505394399166107,
		-0.1349029541015625,
		-0.08472780883312226,
		-0.991329550743103],
		"max":[0.16545523703098298,
		0.07287139445543289,
		0.009610635228455067,
		0.9940952062606812]
	},
	{
		"bufferView":3,
		"type":"SCALAR",
		"componentType":5126,
		"count":32,
		"byteOffset":0,
		"min":[0.0],
		"max":[1.0333333015441895]
	},
	{
		"bufferView":3,
		"type":"VEC4",
		"componentType":5126,
		"count":32,
		"byteOffset":128,
		"min":[-0.6057366132736206,
		-0.1043529063463211,
		-0.05994711443781853,
		-0.9937655925750732],
		"max":[0.5993695855140686,
		0.04224814474582672,
		0.05337214097380638,
		0.9984776973724365]
	},
	{
		"bufferView":4,
		"type":"SCALAR",
		"componentType":5126,
		"count":32,
		"byteOffset":0,
		"min":[0.0],
		"max":[1.0333333015441895]
	},
	{
		"bufferView":4,
		"type":"VEC4",
		"componentType":5126,
		"count":32,
		"byteOffset":128,
		"min":[-0.1348138004541397,
		-0.09269538521766663,
		-0.08432526886463165,
		-0.9999831318855286],
		"max":[0.1919979751110077,
		0.03971351310610771,
		0.07863584160804749,
		0.9999166131019592]
	},
	{
		"bufferView":5,
		"type":"SCALAR",
		"componentType":5126,
		"count":32,
		"byteOffset":0,
		"min":[0.0],
		"max":[1.0333333015441895]
	},
	{
		"bufferView":5,
		"type":"VEC4",
		"componentType":5126,
		"count":32,
		"byteOffset":128,
		"min":[-0.422519713640213,
		-0.06610852479934693,
		-0.0030546130146831276,
		-0.9940346479415894],
		"max":[0.18389417231082917,
		0.14516332745552064,
		0.09336111694574356,
		0.9966616630554199]
	},
	{
		"bufferView":6,
		"type":"SCALAR",
		"componentType":5126,
		"count":32,
		"byteOffset":0,
		"min":[0.0],
		"max":[1.0333333015441895]
	},
	{
		"bufferView":6,
		"type":"VEC4",
		"componentType":5126,
		"count":32,
		"byteOffset":128,
		"min":[-0.22323867678642274,
		-0.1485643833875656,
		-0.08107172697782517,
		-0.9984605312347412],
		"max":[0.5775368809700012,
		0.12720683217048646,
		0.03740750253200531,
		0.9984058141708374]
	},
	{
		"bufferView":7,
		"type":"SCALAR",
		"componentType":5126,
		"count":32,
		"byteOffset":0,
		"min":[0.0],
		"max":[1.0333333015441895]
	},
	{
		"bufferView":7,
		"type":"VEC4",
		"componentType":5126,
		"count":32,
		"byteOffset":128,
		"min":[-0.22344224154949189,
		-0.036894164979457858,
		-0.08034289628267288,
		-0.9994578957557678],
		"max":[0.15432344377040864,
		0.14663811028003694,
		0.07934260368347168,
		0.9998221397399902]
	},
	{
		"bufferView":8,
		"type":"SCALAR",
		"componentType":5126,
		"count":32,
		"byteOffset":0,
		"min":[0.0],
		"max":[1.0333333015441895]
	},
	{
		"bufferView":8,
		"type":"VEC4",
		"componentType":5126,
		"count":32,
		"byteOffset":128,
		"min":[-0.04430554807186127,
		-0.06640668958425522,
		-0.043930888175964358,
		-0.9991896748542786],
		"max":[0.05381808057427406,
		0.040736425668001178,
		0.03842861205339432,
		0.9988945126533508]
	},
	{
		"bufferView":9,
		"type":"SCALAR",
		"componentType":5126,
		"count":32,
		"byteOffset":0,
		"min":[0.0],
		"max":[1.0333333015441895]
	},
	{
		"bufferView":9,
		"type":"VEC4",
		"componentType":5126,
		"count":32,
		"byteOffset":128,
		"min":[-0.011597320437431336,
		-0.35545122623443606,
		-0.1778659224510193,
		-0.9661808609962463],
		"max":[0.14230290055274964,
		0.5197256803512573,
		0.005016819573938847,
		0.9854598641395569]
	},
	{
		"bufferView":10,
		"type":"SCALAR",
		"componentType":5126,
		"count":32,
		"byteOffset":0,
		"min":[0.0],
		"max":[1.0333333015441895]
	},
	{
		"bufferView":10,
		"type":"VEC4",
		"componentType":5126,
		"count":32,
		"byteOffset":128,
		"min":[0.027985908091068269,
		0.00006390274938894436,
		-0.04371001943945885,
		-0.9986522197723389],
		"max":[0.23157678544521333,
		0.059514984488487247,
		0.045086730271577838,
		0.9984394311904907]
	},
	{
		"bufferView":11,
		"type":"SCALAR",
		"componentType":5126,
		"count":32,
		"byteOffset":0,
		"min":[0.0],
		"max":[1.0333333015441895]
	},
	{
		"bufferView":11,
		"type":"VEC4",
		"componentType":5126,
		"count":32,
		"byteOffset":128,
		"min":[-0.07070424407720566,
		-0.41868841648101809,
		0.0004253460792824626,
		-0.9557387828826904],
		"max":[0.13162864744663239,
		0.27172985672950747,
		0.15423040091991425,
		0.9904236197471619]
	},
	{
		"bufferView":12,
		"type":"SCALAR",
		"componentType":5126,
		"count":32,
		"byteOffset":0,
		"min":[0.0],
		"max":[1.0333333015441895]
	},
	{
		"bufferView":12,
		"type":"VEC4",
		"componentType":5126,
		"count":32,
		"byteOffset":128,
		"min":[-0.014295466244220734,
		-0.07343225926160813,
		-0.12016043812036514,
		0.9694398641586304],
		"max":[0.2008867859840393,
		-0.016800303012132646,
		-0.11652050167322159,
		0.9929534196853638]
	}],
	"bufferViews":[{
		"buffer":0,
		"byteOffset":0,
		"byteLength":512
	},
	{
		"buffer":0,
		"byteOffset":512,
		"byteLength":640
	},
	{
		"buffer":1,
		"byteOffset":0,
		"byteLength":640
	},
	{
		"buffer":2,
		"byteOffset":0,
		"byteLength":640
	},
	{
		"buffer":3,
		"byteOffset":0,
		"byteLength":640
	},
	{
		"buffer":4,
		"byteOffset":0,
		"byteLength":640
	},
	{
		"buffer":5,
		"byteOffset":0,
		"byteLength":640
	},
	{
		"buffer":6,
		"byteOffset":0,
		"byteLength":640
	},
	{
		"buffer":7,
		"byteOffset":0,
		"byteLength":640
	},
	{
		"buffer":8,
		"byteOffset":0,
		"byteLength":640
	},
	{
		"buffer":9,
		"byteOffset":0,
		"byteLength":640
	},
	{
		"buffer":10,
		"byteOffset":0,
		"byteLength":640
	},
	{
		"buffer":11,
		"byteOffset":0,
		"byteLength":640
	}],
	"animations":[{
		"samplers":[{
			"input":0,
			"interpolation":"LINEAR",
			"output":1
		},
		{
			"input":2,
			"interpolation":"LINEAR",
			"output":3
		},
		{
			"input":4,
			"interpolation":"LINEAR",
			"output":5
		},
		{
			"input":6,
			"interpolation":"LINEAR",
			"output":7
		},
		{
			"input":8,
			"interpolation":"LINEAR",
			"output":9
		},
		{
			"input":10,
			"interpolation":"LINEAR",
			"output":11
		},
		{
			"input":12,
			"interpolation":"LINEAR",
			"output":13
		},
		{
			"input":14,
			"interpolation":"LINEAR",
			"output":15
		},
		{
			"input":16,
			"interpolation":"LINEAR",
			"output":17
		},
		{
			"input":18,
			"interpolation":"LINEAR",
			"output":19
		},
		{
			"input":20,
			"interpolation":"LINEAR",
			"output":21
		},
		{
			"input":22,
			"interpolation":"LINEAR",
			"output":23
		},
		{
			"input":24,
			"interpolation":"LINEAR",
			"output":25
		}],
		"channels":[{
			"sampler":0,
			"target":{
				"node":0,
				"path":"translation"
			}
		},
		{
			"sampler":1,
			"target":{
				"node":0,
				"path":"rotation"
			}
		},
		{
			"sampler":2,
			"target":{
				"node":1,
				"path":"rotation"
			}
		},
		{
			"sampler":3,
			"target":{
				"node":2,
				"path":"rotation"
			}
		},
		{
			"sampler":4,
			"target":{
				"node":3,
				"path":"rotation"
			}
		},
		{
			"sampler":5,
			"target":{
				"node":5,
				"path":"rotation"
			}
		},
		{
			"sampler":6,
			"target":{
				"node":6,
				"path":"rotation"
			}
		},
		{
			"sampler":7,
			"target":{
				"node":7,
				"path":"rotation"
			}
		},
		{
			"sampler":8,
			"target":{
				"node":9,
				"path":"rotation"
			}
		},
		{
			"sampler":9,
			"target":{
				"node":10,
				"path":"rotation"
			}
		},
		{
			"sampler":10,
			"target":{
				"node":11,
				"path":"rotation"
			}
		},
		{
			"sampler":11,
			"target":{
				"node":14,
				"path":"rotation"
			}
		},
		{
			"sampler":12,
			"target":{
				"node":15,
				"path":"rotation"
			}
		}]
	}]
}